
<svg width="253" height="261" viewBox="0 0 253 261" fill="none" xmlns="http://www.w3.org/2000/svg">
<g clip-path="url(#clip0_4_145)">
<path d="M168.993 40.7397C162.296 45.2775 161.638 52.7319 161.682 61.507C161.876 105.151 161.776 148.801 161.764 192.451C161.764 209.401 157.351 215.391 144.94 215.447C141.672 215.576 138.401 215.32 135.194 214.683C143.331 211.109 143.631 202.967 143.588 193.797C143.375 151.455 143.494 109.107 143.494 66.7395C143.494 45.6906 147.612 40.1889 163.272 40.3767C165.187 40.3955 167.115 40.6145 168.993 40.7397Z" fill="#3C4C4B"/>
<path d="M252.863 257.783C248.407 257.783 243.9 258.196 239.507 257.683C232.935 256.919 229.279 251.58 229.254 243.112C229.173 217.419 229.254 191.725 229.173 166.032C229.21 162.41 228.915 158.791 228.29 155.223C225.968 142.905 215.347 135.952 202.992 138.568C189.591 141.409 179.865 149.678 171.697 160.13C170.445 161.707 169.362 163.378 168.198 165.006L166.195 163.986C167.641 160.756 168.354 156.825 170.658 154.416C185.83 138.562 204.043 131.977 225.655 138.549C239.425 142.736 245.903 152.131 245.916 166.445C245.941 192.366 245.941 218.287 245.916 244.207C245.91 249.734 246.304 254.935 252.863 257.783Z" fill="#3C4C4B"/>
<path d="M140.827 178.25C140.827 181.217 140.608 182.518 140.859 183.72C143.525 196.564 137.191 203.255 125.662 207.047C89.4598 218.94 54.4344 218.395 21.4746 197.258C11.9359 191.143 5.28883 182.187 1.14538 171.597C-2.23448 162.978 2.12178 154.416 10.778 151.962C18.3701 149.815 26.3754 154.891 28.1467 163.454C29.1043 168.098 28.6662 173.049 29.7803 177.643C33.8236 194.354 44.8019 204.556 61.0752 209.107C75.6939 213.228 91.16 213.285 105.808 209.269C121.143 205.182 130.106 197.365 140.827 178.25Z" fill="#1A1E1F"/>
<path d="M11.7388 243.151C11.6553 242.446 11.3165 241.898 10.7224 241.508C10.1284 241.118 9.39978 240.923 8.53658 240.923C7.90541 240.923 7.35315 241.026 6.87977 241.23C6.41104 241.434 6.04441 241.715 5.77988 242.072C5.51999 242.429 5.39004 242.836 5.39004 243.29C5.39004 243.671 5.48054 243.998 5.66154 244.272C5.84717 244.541 6.08386 244.766 6.37159 244.947C6.65933 245.123 6.96099 245.27 7.27657 245.386C7.59215 245.497 7.88221 245.588 8.14674 245.657L9.5947 246.047C9.96597 246.144 10.379 246.279 10.8338 246.451C11.2933 246.623 11.7318 246.857 12.1495 247.154C12.5718 247.446 12.9199 247.822 13.1937 248.282C13.4675 248.741 13.6044 249.305 13.6044 249.973C13.6044 250.744 13.4026 251.44 12.9988 252.062C12.5997 252.684 12.0149 253.178 11.2445 253.544C10.4788 253.911 9.54829 254.094 8.45304 254.094C7.43204 254.094 6.54795 253.93 5.80076 253.6C5.05822 253.271 4.47347 252.811 4.0465 252.222C3.62418 251.632 3.38517 250.948 3.32948 250.168H5.11159C5.158 250.707 5.33899 251.152 5.65458 251.505C5.9748 251.853 6.37856 252.113 6.86585 252.284C7.35779 252.451 7.88685 252.535 8.45304 252.535C9.11205 252.535 9.70376 252.428 10.2282 252.215C10.7526 251.997 11.168 251.695 11.4743 251.31C11.7806 250.92 11.9337 250.465 11.9337 249.945C11.9337 249.472 11.8014 249.087 11.5369 248.79C11.2724 248.493 10.9243 248.251 10.4927 248.066C10.0611 247.88 9.5947 247.718 9.09348 247.579L7.33922 247.077C6.22541 246.757 5.34364 246.3 4.69391 245.706C4.04418 245.112 3.71932 244.335 3.71932 243.374C3.71932 242.576 3.93512 241.88 4.36673 241.285C4.80297 240.687 5.38772 240.223 6.12099 239.893C6.85889 239.559 7.68265 239.392 8.59227 239.392C9.51116 239.392 10.328 239.557 11.0427 239.886C11.7574 240.211 12.3236 240.657 12.7412 241.223C13.1636 241.789 13.3863 242.432 13.4095 243.151H11.7388ZM18.1693 239.587V253.844H16.4429V239.587H18.1693ZM21.6309 239.587H23.6914L28.5365 251.421H28.7036L33.5487 239.587H35.6093V253.844H33.9942V243.012H33.855L29.3997 253.844H27.8404L23.3851 243.012H23.2459V253.844H21.6309V239.587ZM51.1 246.715C51.1 248.219 50.8285 249.518 50.2855 250.614C49.7426 251.709 48.9977 252.554 48.051 253.148C47.1042 253.742 46.0229 254.039 44.807 254.039C43.591 254.039 42.5097 253.742 41.563 253.148C40.6162 252.554 39.8714 251.709 39.3284 250.614C38.7854 249.518 38.5139 248.219 38.5139 246.715C38.5139 245.212 38.7854 243.912 39.3284 242.817C39.8714 241.722 40.6162 240.877 41.563 240.283C42.5097 239.689 43.591 239.392 44.807 239.392C46.0229 239.392 47.1042 239.689 48.051 240.283C48.9977 240.877 49.7426 241.722 50.2855 242.817C50.8285 243.912 51.1 245.212 51.1 246.715ZM49.4293 246.715C49.4293 245.481 49.2228 244.439 48.8097 243.59C48.4013 242.74 47.8468 242.098 47.146 241.661C46.4498 241.225 45.6702 241.007 44.807 241.007C43.9438 241.007 43.1618 241.225 42.461 241.661C41.7648 242.098 41.2103 242.74 40.7972 243.59C40.3888 244.439 40.1846 245.481 40.1846 246.715C40.1846 247.95 40.3888 248.992 40.7972 249.841C41.2103 250.69 41.7648 251.333 42.461 251.769C43.1618 252.206 43.9438 252.424 44.807 252.424C45.6702 252.424 46.4498 252.206 47.146 251.769C47.8468 251.333 48.4013 250.69 48.8097 249.841C49.2228 248.992 49.4293 247.95 49.4293 246.715ZM65.3081 239.587V253.844H63.6374L55.8685 242.65H55.7293V253.844H54.0029V239.587H55.6736L63.4703 250.809H63.6096V239.587H65.3081ZM69.3475 253.844H67.5375L72.7724 239.587H74.5546L79.7895 253.844H77.9795L73.7192 241.842H73.6078L69.3475 253.844ZM70.0158 248.275H77.3112V249.806H70.0158V248.275ZM87.5235 253.844V239.587H89.25V245.936H96.8518V239.587H98.5782V253.844H96.8518V247.467H89.25V253.844H87.5235ZM102.034 253.844V239.587H110.639V241.118H103.761V245.936H110.193V247.467H103.761V252.312H110.75V253.844H102.034ZM113.75 253.844V239.587H118.568C119.682 239.587 120.596 239.777 121.31 240.158C122.025 240.534 122.554 241.051 122.898 241.71C123.241 242.369 123.413 243.119 123.413 243.959C123.413 244.799 123.241 245.543 122.898 246.193C122.554 246.843 122.027 247.353 121.317 247.725C120.607 248.091 119.7 248.275 118.596 248.275H114.697V246.715H118.54C119.301 246.715 119.914 246.604 120.378 246.381C120.846 246.158 121.185 245.843 121.394 245.434C121.607 245.021 121.714 244.529 121.714 243.959C121.714 243.388 121.607 242.889 121.394 242.462C121.181 242.035 120.839 241.705 120.371 241.473C119.902 241.237 119.282 241.118 118.512 241.118H115.477V253.844H113.75ZM120.461 247.439L123.97 253.844H121.965L118.512 247.439H120.461ZM137.595 239.587V253.844H135.924L128.155 242.65H128.016V253.844H126.29V239.587H127.96L135.757 250.809H135.896V239.587H137.595ZM141.634 253.844H139.824L145.059 239.587H146.841L152.076 253.844H150.266L146.006 241.842H145.894L141.634 253.844ZM142.302 248.275H149.598V249.806H142.302V248.275ZM165.602 239.587V253.844H163.931L156.162 242.65H156.023V253.844H154.297V239.587H155.968L163.764 250.809H163.903V239.587H165.602ZM173.456 253.844H169.057V239.587H173.651C175.034 239.587 176.218 239.872 177.201 240.443C178.185 241.009 178.939 241.824 179.464 242.887C179.988 243.945 180.251 245.212 180.251 246.687C180.251 248.173 179.986 249.451 179.457 250.523C178.928 251.591 178.157 252.412 177.146 252.988C176.134 253.558 174.904 253.844 173.456 253.844ZM170.783 252.312H173.345C174.524 252.312 175.501 252.085 176.276 251.63C177.051 251.175 177.628 250.528 178.009 249.688C178.389 248.848 178.58 247.848 178.58 246.687C178.58 245.537 178.392 244.546 178.016 243.715C177.64 242.88 177.078 242.239 176.331 241.794C175.584 241.343 174.654 241.118 173.54 241.118H170.783V252.312ZM183.146 253.844V239.587H191.751V241.118H184.873V245.936H191.305V247.467H184.873V252.312H191.862V253.844H183.146ZM194.389 253.844V252.591L202.074 241.118H194.305V239.587H204.135V240.84L196.45 252.312H204.218V253.844H194.389Z" fill="#1A1E1F"/>
<path d="M11.7388 243.151L11.428 243.188L11.4607 243.464H11.7388V243.151ZM10.7224 241.508L10.5507 241.77L10.5507 241.77L10.7224 241.508ZM6.87977 241.23L6.75582 240.942L6.75478 240.943L6.87977 241.23ZM5.77988 242.072L5.52834 241.886L5.52679 241.888L5.77988 242.072ZM5.66154 244.272L5.40042 244.444L5.40391 244.45L5.66154 244.272ZM6.37159 244.947L6.20495 245.212L6.20806 245.214L6.37159 244.947ZM7.27657 245.386L7.16857 245.679L7.17241 245.681L7.27657 245.386ZM8.14674 245.657L8.2281 245.355L8.22638 245.355L8.14674 245.657ZM9.5947 246.047L9.51334 246.349L9.51524 246.35L9.5947 246.047ZM10.8338 246.451L10.7233 246.744L10.7243 246.744L10.8338 246.451ZM12.1495 247.154L11.9681 247.409L11.9714 247.411L12.1495 247.154ZM13.1937 248.282L13.4626 248.121L13.4626 248.121L13.1937 248.282ZM12.9988 252.062L12.7363 251.891L12.7354 251.893L12.9988 252.062ZM11.2445 253.544L11.1101 253.262L11.1094 253.262L11.2445 253.544ZM5.80076 253.6L5.67383 253.886L5.67449 253.886L5.80076 253.6ZM4.0465 252.222L3.79211 252.404L3.79306 252.405L4.0465 252.222ZM3.32948 250.168V249.855H2.99338L3.01733 250.19L3.32948 250.168ZM5.11159 250.168L5.42338 250.141L5.39872 249.855H5.11159V250.168ZM5.65458 251.505L5.42133 251.713L5.42427 251.717L5.65458 251.505ZM6.86585 252.284L6.76184 252.58L6.76521 252.581L6.86585 252.284ZM10.2282 252.215L10.3462 252.505L10.3484 252.504L10.2282 252.215ZM11.4743 251.31L11.7192 251.505L11.7203 251.503L11.4743 251.31ZM11.5369 248.79L11.7706 248.582L11.7706 248.582L11.5369 248.79ZM10.4927 248.066L10.3691 248.353L10.3691 248.353L10.4927 248.066ZM9.09348 247.579L9.00751 247.879L9.00972 247.88L9.09348 247.579ZM7.33922 247.077L7.25275 247.378L7.25325 247.378L7.33922 247.077ZM4.69391 245.706L4.48274 245.937L4.48274 245.937L4.69391 245.706ZM4.36673 241.285L4.1138 241.101L4.11355 241.102L4.36673 241.285ZM6.12099 239.893L6.24926 240.179L6.25008 240.178L6.12099 239.893ZM11.0427 239.886L10.9116 240.17L10.9132 240.171L11.0427 239.886ZM12.7412 241.223L12.4894 241.409L12.4904 241.41L12.7412 241.223ZM13.4095 243.151V243.464H13.7327L13.7223 243.141L13.4095 243.151ZM12.0496 243.114C11.9552 242.317 11.5654 241.687 10.8941 241.247L10.5507 241.77C11.0675 242.109 11.3554 242.574 11.428 243.188L12.0496 243.114ZM10.8941 241.247C10.2391 240.817 9.44756 240.611 8.53658 240.611V241.236C9.352 241.236 10.0178 241.42 10.5507 241.77L10.8941 241.247ZM8.53658 240.611C7.8721 240.611 7.27607 240.718 6.75582 240.942L7.00373 241.517C7.43022 241.333 7.93873 241.236 8.53658 241.236V240.611ZM6.75478 240.943C6.24342 241.166 5.83014 241.478 5.52835 241.886L6.03141 242.258C6.25869 241.951 6.57866 241.702 7.00476 241.517L6.75478 240.943ZM5.52679 241.888C5.22679 242.301 5.07709 242.771 5.07709 243.29H5.70299C5.70299 242.9 5.81319 242.558 6.03297 242.256L5.52679 241.888ZM5.07709 243.29C5.07709 243.722 5.1805 244.112 5.40047 244.444L5.92261 244.099C5.78058 243.884 5.70299 243.62 5.70299 243.29H5.07709ZM5.40391 244.45C5.61461 244.755 5.88275 245.009 6.20496 245.212L6.53823 244.682C6.28497 244.523 6.07974 244.327 5.91916 244.094L5.40391 244.45ZM6.20806 245.214C6.51331 245.401 6.83357 245.556 7.16858 245.679L7.38456 245.092C7.08841 244.983 6.80535 244.846 6.53513 244.68L6.20806 245.214ZM7.17241 245.681C7.49436 245.794 7.79271 245.888 8.0671 245.96L8.22638 245.355C7.9717 245.288 7.68995 245.2 7.38073 245.091L7.17241 245.681ZM8.06538 245.959L9.51334 246.349L9.67606 245.745L8.2281 245.355L8.06538 245.959ZM9.51524 246.35C9.87366 246.444 10.2761 246.575 10.7233 246.744L10.9444 246.158C10.4819 245.983 10.0583 245.845 9.67416 245.744L9.51524 246.35ZM10.7243 246.744C11.1571 246.906 11.5717 247.127 11.9682 247.409L12.3309 246.899C11.892 246.587 11.4294 246.339 10.9434 246.158L10.7243 246.744ZM11.9714 247.411C12.3553 247.677 12.673 248.019 12.9249 248.442L13.4626 248.121C13.1668 247.625 12.7883 247.216 12.3277 246.897L11.9714 247.411ZM12.9249 248.442C13.1634 248.842 13.2915 249.347 13.2915 249.973H13.9174C13.9174 249.262 13.7716 248.64 13.4626 248.121L12.9249 248.442ZM13.2915 249.973C13.2915 250.686 13.1058 251.322 12.7363 251.891L13.2613 252.232C13.6993 251.557 13.9174 250.802 13.9174 249.973H13.2915ZM12.7354 251.893C12.3725 252.458 11.836 252.916 11.1101 253.262L11.379 253.827C12.1938 253.439 12.8269 252.909 13.2622 252.231L12.7354 251.893ZM11.1094 253.262C10.3962 253.604 9.5146 253.781 8.45304 253.781V254.407C9.58199 254.407 10.5614 254.218 11.3797 253.827L11.1094 253.262ZM8.45304 253.781C7.46498 253.781 6.62581 253.622 5.92704 253.314L5.67449 253.886C6.47009 254.237 7.3991 254.407 8.45304 254.407V253.781ZM5.9277 253.314C5.22962 253.004 4.69087 252.578 4.29994 252.038L3.79306 252.405C4.25607 253.044 4.88682 253.537 5.67383 253.886L5.9277 253.314ZM4.30089 252.039C3.91485 251.501 3.69355 250.873 3.64164 250.146L3.01733 250.19C3.0768 251.023 3.33351 251.764 3.79212 252.404L4.30089 252.039ZM3.32948 250.481H5.11159V249.855H3.32948V250.481ZM4.7998 250.195C4.85116 250.791 5.05433 251.303 5.42135 251.713L5.8878 251.296C5.62365 251.001 5.46483 250.622 5.42338 250.141L4.7998 250.195ZM5.42427 251.717C5.78228 252.106 6.23083 252.392 6.76184 252.58L6.96986 251.989C6.52628 251.833 6.16732 251.6 5.88488 251.293L5.42427 251.717ZM6.76521 252.581C7.29234 252.76 7.85569 252.848 8.45304 252.848V252.222C7.91801 252.222 7.42323 252.143 6.96649 251.988L6.76521 252.581ZM8.45304 252.848C9.14596 252.848 9.77867 252.736 10.3462 252.505L10.1102 251.925C9.62885 252.121 9.07813 252.222 8.45304 252.222V252.848ZM10.3484 252.504C10.9141 252.268 11.3752 251.937 11.7192 251.505L11.2293 251.115C10.9607 251.453 10.5911 251.725 10.108 251.926L10.3484 252.504ZM11.7203 251.503C12.0722 251.055 12.2467 250.532 12.2467 249.945H11.6208C11.6208 250.399 11.489 250.785 11.2282 251.116L11.7203 251.503ZM12.2467 249.945C12.2467 249.411 12.0956 248.947 11.7706 248.582L11.3032 248.998C11.5073 249.227 11.6208 249.533 11.6208 249.945H12.2467ZM11.7706 248.582C11.4706 248.245 11.0825 247.979 10.6164 247.778L10.3691 248.353C10.7662 248.524 11.0742 248.741 11.3032 248.998L11.7706 248.582ZM10.6164 247.778C10.1705 247.587 9.69063 247.42 9.17724 247.277L9.00972 247.88C9.49877 248.016 9.95172 248.174 10.3691 248.353L10.6164 247.778ZM9.17946 247.278L7.4252 246.776L7.25325 247.378L9.00751 247.879L9.17946 247.278ZM7.42569 246.777C6.34418 246.466 5.50974 246.028 4.90508 245.475L4.48274 245.937C5.17753 246.572 6.10663 247.049 7.25275 247.378L7.42569 246.777ZM4.90508 245.475C4.32652 244.946 4.03227 244.256 4.03227 243.374H3.40637C3.40637 244.413 3.76184 245.278 4.48274 245.937L4.90508 245.475ZM4.03227 243.374C4.03227 242.636 4.23057 242.005 4.6199 241.469L4.11355 241.102C3.63967 241.754 3.40637 242.516 3.40637 243.374H4.03227ZM4.61965 241.47C5.02114 240.919 5.56128 240.488 6.24926 240.179L5.99271 239.608C5.21417 239.958 4.5848 240.455 4.1138 241.101L4.61965 241.47ZM6.25008 240.178C6.9427 239.865 7.72168 239.705 8.59227 239.705V239.079C7.64362 239.079 6.77507 239.253 5.99189 239.608L6.25008 240.178ZM8.59227 239.705C9.47345 239.705 10.2443 239.863 10.9116 240.17L11.1737 239.602C10.4116 239.251 9.54888 239.079 8.59227 239.079V239.705ZM10.9132 240.171C11.585 240.477 12.1069 240.89 12.4894 241.409L12.9931 241.037C12.5402 240.423 11.9297 239.946 11.1722 239.601L10.9132 240.171ZM12.4904 241.41C12.8737 241.924 13.0756 242.505 13.0967 243.161L13.7223 243.141C13.6971 242.359 13.4534 241.654 12.9921 241.036L12.4904 241.41ZM13.4095 242.838H11.7388V243.464H13.4095V242.838ZM18.1693 239.587H18.4823V239.274H18.1693V239.587ZM18.1693 253.844V254.157H18.4823V253.844H18.1693ZM16.4429 253.844H16.13V254.157H16.4429V253.844ZM16.4429 239.587V239.274H16.13V239.587H16.4429ZM17.8564 239.587V253.844H18.4823V239.587H17.8564ZM18.1693 253.531H16.4429V254.157H18.1693V253.531ZM16.7559 253.844V239.587H16.13V253.844H16.7559ZM16.4429 239.9H18.1693V239.274H16.4429V239.9ZM21.6309 239.587V239.274H21.3179V239.587H21.6309ZM23.6914 239.587L23.9811 239.468L23.9015 239.274H23.6914V239.587ZM28.5365 251.421L28.2469 251.54L28.3265 251.734H28.5365V251.421ZM28.7036 251.421V251.734H28.9136L28.9932 251.54L28.7036 251.421ZM33.5487 239.587V239.274H33.3387L33.2591 239.468L33.5487 239.587ZM35.6093 239.587H35.9222V239.274H35.6093V239.587ZM35.6093 253.844V254.157H35.9222V253.844H35.6093ZM33.9942 253.844H33.6813V254.157H33.9942V253.844ZM33.9942 243.012H34.3072V242.699H33.9942V243.012ZM33.855 243.012V242.699H33.6453L33.5656 242.893L33.855 243.012ZM29.3997 253.844V254.157H29.6094L29.6892 253.963L29.3997 253.844ZM27.8404 253.844L27.551 253.963L27.6307 254.157H27.8404V253.844ZM23.3851 243.012L23.6746 242.893L23.5948 242.699H23.3851V243.012ZM23.2459 243.012V242.699H22.933V243.012H23.2459ZM23.2459 253.844V254.157H23.5589V253.844H23.2459ZM21.6309 253.844H21.3179V254.157H21.6309V253.844ZM21.6309 239.9H23.6914V239.274H21.6309V239.9ZM23.4018 239.705L28.2469 251.54L28.8262 251.303L23.9811 239.468L23.4018 239.705ZM28.5365 251.734H28.7036V251.108H28.5365V251.734ZM28.9932 251.54L33.8383 239.705L33.2591 239.468L28.414 251.303L28.9932 251.54ZM33.5487 239.9H35.6093V239.274H33.5487V239.9ZM35.2963 239.587V253.844H35.9222V239.587H35.2963ZM35.6093 253.531H33.9942V254.157H35.6093V253.531ZM34.3072 253.844V243.012H33.6813V253.844H34.3072ZM33.9942 242.699H33.855V243.325H33.9942V242.699ZM33.5656 242.893L29.1103 253.725L29.6892 253.963L34.1444 243.131L33.5656 242.893ZM29.3997 253.531H27.8404V254.157H29.3997V253.531ZM28.1298 253.725L23.6746 242.893L23.0957 243.131L27.551 253.963L28.1298 253.725ZM23.3851 242.699H23.2459V243.325H23.3851V242.699ZM22.933 243.012V253.844H23.5589V243.012H22.933ZM23.2459 253.531H21.6309V254.157H23.2459V253.531ZM21.9438 253.844V239.587H21.3179V253.844H21.9438ZM50.2855 250.614L50.0052 250.475L50.0052 250.475L50.2855 250.614ZM48.051 253.148L48.2173 253.413L48.2173 253.413L48.051 253.148ZM41.563 253.148L41.3966 253.413L41.3966 253.413L41.563 253.148ZM39.3284 250.614L39.6088 250.475L39.6088 250.475L39.3284 250.614ZM39.3284 242.817L39.048 242.678L39.3284 242.817ZM48.051 240.283L48.2173 240.018L48.2173 240.018L48.051 240.283ZM50.2855 242.817L50.0052 242.956L50.0052 242.956L50.2855 242.817ZM48.8097 243.59L48.5277 243.725L48.5283 243.727L48.8097 243.59ZM47.146 241.661L46.9798 241.927L46.9806 241.927L47.146 241.661ZM42.461 241.661L42.2956 241.396L42.2948 241.396L42.461 241.661ZM40.7972 243.59L40.5158 243.453L40.5152 243.454L40.7972 243.59ZM40.7972 249.841L40.5152 249.977L40.5158 249.978L40.7972 249.841ZM42.461 251.769L42.2948 252.034L42.2956 252.035L42.461 251.769ZM47.146 251.769L46.9806 251.504L46.9798 251.504L47.146 251.769ZM48.8097 249.841L48.5283 249.704L48.5277 249.705L48.8097 249.841ZM50.7871 246.715C50.7871 248.182 50.5224 249.431 50.0052 250.475L50.5659 250.753C51.1347 249.605 51.413 248.256 51.413 246.715H50.7871ZM50.0052 250.475C49.4853 251.523 48.7779 252.322 47.8846 252.883L48.2173 253.413C49.2175 252.785 49.9998 251.895 50.5659 250.753L50.0052 250.475ZM47.8846 252.883C46.9921 253.443 45.9694 253.726 44.807 253.726V254.352C46.0763 254.352 47.2163 254.041 48.2173 253.413L47.8846 252.883ZM44.807 253.726C43.6445 253.726 42.6218 253.443 41.7293 252.883L41.3966 253.413C42.3976 254.041 43.5376 254.352 44.807 254.352V253.726ZM41.7293 252.883C40.836 252.322 40.1286 251.523 39.6088 250.475L39.048 250.753C39.6141 251.895 40.3964 252.785 41.3966 253.413L41.7293 252.883ZM39.6088 250.475C39.0916 249.431 38.8268 248.182 38.8268 246.715H38.2009C38.2009 248.256 38.4792 249.605 39.048 250.753L39.6088 250.475ZM38.8268 246.715C38.8268 245.249 39.0916 243.999 39.6088 242.956L39.048 242.678C38.4792 243.825 38.2009 245.174 38.2009 246.715H38.8268ZM39.6088 242.956C40.1286 241.907 40.836 241.109 41.7293 240.548L41.3966 240.018C40.3964 240.646 39.6141 241.536 39.048 242.678L39.6088 242.956ZM41.7293 240.548C42.6218 239.988 43.6445 239.705 44.807 239.705V239.079C43.5376 239.079 42.3976 239.39 41.3966 240.018L41.7293 240.548ZM44.807 239.705C45.9694 239.705 46.9921 239.988 47.8846 240.548L48.2173 240.018C47.2163 239.39 46.0763 239.079 44.807 239.079V239.705ZM47.8846 240.548C48.7779 241.109 49.4853 241.907 50.0052 242.956L50.5659 242.678C49.9998 241.536 49.2175 240.646 48.2173 240.018L47.8846 240.548ZM50.0052 242.956C50.5224 243.999 50.7871 245.249 50.7871 246.715H51.413C51.413 245.174 51.1347 243.825 50.5659 242.678L50.0052 242.956ZM49.7422 246.715C49.7422 245.447 49.5303 244.356 49.0912 243.453L48.5283 243.727C48.9152 244.522 49.1163 245.514 49.1163 246.715H49.7422ZM49.0918 243.454C48.6614 242.559 48.0694 241.868 47.3114 241.396L46.9806 241.927C47.6241 242.328 48.1413 242.922 48.5277 243.725L49.0918 243.454ZM47.3122 241.396C46.5636 240.927 45.7258 240.694 44.807 240.694V241.32C45.6145 241.32 46.3361 241.523 46.9798 241.927L47.3122 241.396ZM44.807 240.694C43.8881 240.694 43.0483 240.927 42.2956 241.396L42.6264 241.927C43.2752 241.523 43.9994 241.32 44.807 241.32V240.694ZM42.2948 241.396C41.5419 241.868 40.9506 242.559 40.5158 243.453L41.0787 243.727C41.47 242.922 41.9878 242.327 42.6272 241.927L42.2948 241.396ZM40.5152 243.454C40.0811 244.357 39.8717 245.448 39.8717 246.715H40.4976C40.4976 245.514 40.6965 244.521 41.0793 243.725L40.5152 243.454ZM39.8717 246.715C39.8717 247.983 40.0811 249.074 40.5152 249.977L41.0793 249.705C40.6965 248.909 40.4976 247.917 40.4976 246.715H39.8717ZM40.5158 249.978C40.9506 250.872 41.5419 251.563 42.2948 252.034L42.6272 251.504C41.9878 251.103 41.47 250.509 41.0787 249.704L40.5158 249.978ZM42.2956 252.035C43.0483 252.504 43.8881 252.737 44.807 252.737V252.111C43.9994 252.111 43.2752 251.907 42.6264 251.504L42.2956 252.035ZM44.807 252.737C45.7258 252.737 46.5636 252.504 47.3122 252.034L46.9798 251.504C46.3361 251.907 45.6145 252.111 44.807 252.111V252.737ZM47.3114 252.035C48.0694 251.563 48.6614 250.872 49.0918 249.977L48.5277 249.705C48.1413 250.509 47.6241 251.103 46.9806 251.504L47.3114 252.035ZM49.0912 249.978C49.5303 249.075 49.7422 247.983 49.7422 246.715H49.1163C49.1163 247.916 48.9152 248.908 48.5283 249.704L49.0912 249.978ZM65.3081 239.587H65.6211V239.274H65.3081V239.587ZM65.3081 253.844V254.157H65.6211V253.844H65.3081ZM63.6374 253.844L63.3803 254.022L63.4737 254.157H63.6374V253.844ZM55.8685 242.65L56.1256 242.471L56.0323 242.337H55.8685V242.65ZM55.7293 242.65V242.337H55.4164V242.65H55.7293ZM55.7293 253.844V254.157H56.0423V253.844H55.7293ZM54.0029 253.844H53.69V254.157H54.0029V253.844ZM54.0029 239.587V239.274H53.69V239.587H54.0029ZM55.6736 239.587L55.9306 239.408L55.8373 239.274H55.6736V239.587ZM63.4703 250.809L63.2133 250.987L63.3067 251.122H63.4703V250.809ZM63.6096 250.809V251.122H63.9225V250.809H63.6096ZM63.6096 239.587V239.274H63.2966V239.587H63.6096ZM64.9952 239.587V253.844H65.6211V239.587H64.9952ZM65.3081 253.531H63.6374V254.157H65.3081V253.531ZM63.8945 253.665L56.1256 242.471L55.6114 242.828L63.3803 254.022L63.8945 253.665ZM55.8685 242.337H55.7293V242.963H55.8685V242.337ZM55.4164 242.65V253.844H56.0423V242.65H55.4164ZM55.7293 253.531H54.0029V254.157H55.7293V253.531ZM54.3159 253.844V239.587H53.69V253.844H54.3159ZM54.0029 239.9H55.6736V239.274H54.0029V239.9ZM55.4166 239.765L63.2133 250.987L63.7273 250.63L55.9306 239.408L55.4166 239.765ZM63.4703 251.122H63.6096V250.496H63.4703V251.122ZM63.9225 250.809V239.587H63.2966V250.809H63.9225ZM63.6096 239.9H65.3081V239.274H63.6096V239.9ZM69.3475 253.844V254.157H69.5685L69.6424 253.948L69.3475 253.844ZM67.5375 253.844L67.2437 253.736L67.0892 254.157H67.5375V253.844ZM72.7724 239.587V239.274H72.554L72.4787 239.479L72.7724 239.587ZM74.5546 239.587L74.8483 239.479L74.773 239.274H74.5546V239.587ZM79.7895 253.844V254.157H80.2378L80.0833 253.736L79.7895 253.844ZM77.9795 253.844L77.6846 253.948L77.7585 254.157H77.9795V253.844ZM73.7192 241.842L74.0141 241.738L73.9402 241.529H73.7192V241.842ZM73.6078 241.842V241.529H73.3868L73.3129 241.738L73.6078 241.842ZM70.0158 248.275V247.962H69.7028V248.275H70.0158ZM77.3112 248.275H77.6242V247.962H77.3112V248.275ZM77.3112 249.806V250.119H77.6242V249.806H77.3112ZM70.0158 249.806H69.7028V250.119H70.0158V249.806ZM69.3475 253.531H67.5375V254.157H69.3475V253.531ZM67.8313 253.952L73.0662 239.695L72.4787 239.479L67.2437 253.736L67.8313 253.952ZM72.7724 239.9H74.5546V239.274H72.7724V239.9ZM74.2608 239.695L79.4957 253.952L80.0833 253.736L74.8483 239.479L74.2608 239.695ZM79.7895 253.531H77.9795V254.157H79.7895V253.531ZM78.2745 253.739L74.0141 241.738L73.4243 241.947L77.6846 253.948L78.2745 253.739ZM73.7192 241.529H73.6078V242.155H73.7192V241.529ZM73.3129 241.738L69.0525 253.739L69.6424 253.948L73.9027 241.947L73.3129 241.738ZM70.0158 248.588H77.3112V247.962H70.0158V248.588ZM76.9983 248.275V249.806H77.6242V248.275H76.9983ZM77.3112 249.493H70.0158V250.119H77.3112V249.493ZM70.3287 249.806V248.275H69.7028V249.806H70.3287ZM87.5235 253.844H87.2106V254.157H87.5235V253.844ZM87.5235 239.587V239.274H87.2106V239.587H87.5235ZM89.25 239.587H89.5629V239.274H89.25V239.587ZM89.25 245.936H88.937V246.249H89.25V245.936ZM96.8518 245.936V246.249H97.1647V245.936H96.8518ZM96.8518 239.587V239.274H96.5388V239.587H96.8518ZM98.5782 239.587H98.8911V239.274H98.5782V239.587ZM98.5782 253.844V254.157H98.8911V253.844H98.5782ZM96.8518 253.844H96.5388V254.157H96.8518V253.844ZM96.8518 247.467H97.1647V247.154H96.8518V247.467ZM89.25 247.467V247.154H88.937V247.467H89.25ZM89.25 253.844V254.157H89.5629V253.844H89.25ZM87.8365 253.844V239.587H87.2106V253.844H87.8365ZM87.5235 239.9H89.25V239.274H87.5235V239.9ZM88.937 239.587V245.936H89.5629V239.587H88.937ZM89.25 246.249H96.8518V245.623H89.25V246.249ZM97.1647 245.936V239.587H96.5388V245.936H97.1647ZM96.8518 239.9H98.5782V239.274H96.8518V239.9ZM98.2652 239.587V253.844H98.8911V239.587H98.2652ZM98.5782 253.531H96.8518V254.157H98.5782V253.531ZM97.1647 253.844V247.467H96.5388V253.844H97.1647ZM96.8518 247.154H89.25V247.78H96.8518V247.154ZM88.937 247.467V253.844H89.5629V247.467H88.937ZM89.25 253.531H87.5235V254.157H89.25V253.531ZM102.034 253.844H101.722V254.157H102.034V253.844ZM102.034 239.587V239.274H101.722V239.587H102.034ZM110.639 239.587H110.952V239.274H110.639V239.587ZM110.639 241.118V241.431H110.952V241.118H110.639ZM103.761 241.118V240.805H103.448V241.118H103.761ZM103.761 245.936H103.448V246.249H103.761V245.936ZM110.193 245.936H110.506V245.623H110.193V245.936ZM110.193 247.467V247.78H110.506V247.467H110.193ZM103.761 247.467V247.154H103.448V247.467H103.761ZM103.761 252.312H103.448V252.625H103.761V252.312ZM110.75 252.312H111.063V251.999H110.75V252.312ZM110.75 253.844V254.157H111.063V253.844H110.75ZM102.347 253.844V239.587H101.722V253.844H102.347ZM102.034 239.9H110.639V239.274H102.034V239.9ZM110.326 239.587V241.118H110.952V239.587H110.326ZM110.639 240.805H103.761V241.431H110.639V240.805ZM103.448 241.118V245.936H104.074V241.118H103.448ZM103.761 246.249H110.193V245.623H103.761V246.249ZM109.88 245.936V247.467H110.506V245.936H109.88ZM110.193 247.154H103.761V247.78H110.193V247.154ZM103.448 247.467V252.312H104.074V247.467H103.448ZM103.761 252.625H110.75V251.999H103.761V252.625ZM110.437 252.312V253.844H111.063V252.312H110.437ZM110.75 253.531H102.034V254.157H110.75V253.531ZM113.75 253.844H113.437V254.157H113.75V253.844ZM113.75 239.587V239.274H113.437V239.587H113.75ZM121.31 240.158L121.163 240.434L121.165 240.435L121.31 240.158ZM122.898 241.71L122.62 241.855L122.62 241.855L122.898 241.71ZM122.898 246.193L122.621 246.047L122.621 246.047L122.898 246.193ZM121.317 247.725L121.461 248.003L121.462 248.002L121.317 247.725ZM114.697 248.275H114.384V248.588H114.697V248.275ZM114.697 246.715V246.402H114.384V246.715H114.697ZM120.378 246.381L120.243 246.099L120.242 246.099L120.378 246.381ZM121.394 245.434L121.116 245.291L121.115 245.292L121.394 245.434ZM120.371 241.473L120.23 241.753L120.232 241.754L120.371 241.473ZM115.477 241.118V240.805H115.164V241.118H115.477ZM115.477 253.844V254.157H115.79V253.844H115.477ZM120.461 247.439L120.736 247.289L120.647 247.126H120.461V247.439ZM123.97 253.844V254.157H124.498L124.244 253.693L123.97 253.844ZM121.965 253.844L121.689 253.992L121.778 254.157H121.965V253.844ZM118.512 247.439V247.126H117.988L118.237 247.588L118.512 247.439ZM114.063 253.844V239.587H113.437V253.844H114.063ZM113.75 239.9H118.568V239.274H113.75V239.9ZM118.568 239.9C119.649 239.9 120.508 240.085 121.163 240.434L121.458 239.882C120.684 239.469 119.715 239.274 118.568 239.274V239.9ZM121.165 240.435C121.828 240.784 122.309 241.257 122.62 241.855L123.175 241.565C122.8 240.845 122.222 240.284 121.456 239.881L121.165 240.435ZM122.62 241.855C122.937 242.464 123.1 243.162 123.1 243.959H123.726C123.726 243.075 123.545 242.275 123.175 241.565L122.62 241.855ZM123.1 243.959C123.1 244.755 122.937 245.448 122.621 246.047L123.174 246.339C123.545 245.639 123.726 244.842 123.726 243.959H123.1ZM122.621 246.047C122.31 246.636 121.832 247.103 121.172 247.447L121.462 248.002C122.223 247.604 122.799 247.05 123.174 246.339L122.621 246.047ZM121.174 247.447C120.522 247.783 119.668 247.962 118.596 247.962V248.588C119.732 248.588 120.693 248.399 121.461 248.003L121.174 247.447ZM118.596 247.962H114.697V248.588H118.596V247.962ZM115.01 248.275V246.715H114.384V248.275H115.01ZM114.697 247.028H118.54V246.402H114.697V247.028ZM118.54 247.028C119.327 247.028 119.991 246.914 120.513 246.663L120.242 246.099C119.836 246.294 119.275 246.402 118.54 246.402V247.028ZM120.512 246.664C121.034 246.416 121.428 246.055 121.673 245.577L121.115 245.292C120.942 245.631 120.658 245.901 120.243 246.099L120.512 246.664ZM121.672 245.578C121.913 245.112 122.027 244.568 122.027 243.959H121.401C121.401 244.491 121.302 244.931 121.116 245.291L121.672 245.578ZM122.027 243.959C122.027 243.349 121.913 242.8 121.674 242.322L121.114 242.602C121.302 242.978 121.401 243.427 121.401 243.959H122.027ZM121.674 242.322C121.427 241.828 121.033 241.452 120.51 241.193L120.232 241.754C120.646 241.959 120.934 242.242 121.114 242.602L121.674 242.322ZM120.512 241.194C119.984 240.927 119.31 240.805 118.512 240.805V241.431C119.255 241.431 119.82 241.546 120.23 241.753L120.512 241.194ZM118.512 240.805H115.477V241.431H118.512V240.805ZM115.164 241.118V253.844H115.79V241.118H115.164ZM115.477 253.531H113.75V254.157H115.477V253.531ZM120.187 247.59L123.695 253.994L124.244 253.693L120.736 247.289L120.187 247.59ZM123.97 253.531H121.965V254.157H123.97V253.531ZM122.24 253.695L118.787 247.291L118.237 247.588L121.689 253.992L122.24 253.695ZM118.512 247.752H120.461V247.126H118.512V247.752ZM137.595 239.587H137.908V239.274H137.595V239.587ZM137.595 253.844V254.157H137.908V253.844H137.595ZM135.924 253.844L135.667 254.022L135.76 254.157H135.924V253.844ZM128.155 242.65L128.412 242.471L128.319 242.337H128.155V242.65ZM128.016 242.65V242.337H127.703V242.65H128.016ZM128.016 253.844V254.157H128.329V253.844H128.016ZM126.29 253.844H125.977V254.157H126.29V253.844ZM126.29 239.587V239.274H125.977V239.587H126.29ZM127.96 239.587L128.217 239.408L128.124 239.274H127.96V239.587ZM135.757 250.809L135.5 250.987L135.593 251.122H135.757V250.809ZM135.896 250.809V251.122H136.209V250.809H135.896ZM135.896 239.587V239.274H135.583V239.587H135.896ZM137.282 239.587V253.844H137.908V239.587H137.282ZM137.595 253.531H135.924V254.157H137.595V253.531ZM136.181 253.665L128.412 242.471L127.898 242.828L135.667 254.022L136.181 253.665ZM128.155 242.337H128.016V242.963H128.155V242.337ZM127.703 242.65V253.844H128.329V242.65H127.703ZM128.016 253.531H126.29V254.157H128.016V253.531ZM126.603 253.844V239.587H125.977V253.844H126.603ZM126.29 239.9H127.96V239.274H126.29V239.9ZM127.703 239.765L135.5 250.987L136.014 250.63L128.217 239.408L127.703 239.765ZM135.757 251.122H135.896V250.496H135.757V251.122ZM136.209 250.809V239.587H135.583V250.809H136.209ZM135.896 239.9H137.595V239.274H135.896V239.9ZM141.634 253.844V254.157H141.855L141.929 253.948L141.634 253.844ZM139.824 253.844L139.53 253.736L139.376 254.157H139.824V253.844ZM145.059 239.587V239.274H144.841L144.765 239.479L145.059 239.587ZM146.841 239.587L147.135 239.479L147.06 239.274H146.841V239.587ZM152.076 253.844V254.157H152.524L152.37 253.736L152.076 253.844ZM150.266 253.844L149.971 253.948L150.045 254.157H150.266V253.844ZM146.006 241.842L146.301 241.738L146.227 241.529H146.006V241.842ZM145.894 241.842V241.529H145.673L145.6 241.738L145.894 241.842ZM142.302 248.275V247.962H141.989V248.275H142.302ZM149.598 248.275H149.911V247.962H149.598V248.275ZM149.598 249.806V250.119H149.911V249.806H149.598ZM142.302 249.806H141.989V250.119H142.302V249.806ZM141.634 253.531H139.824V254.157H141.634V253.531ZM140.118 253.952L145.353 239.695L144.765 239.479L139.53 253.736L140.118 253.952ZM145.059 239.9H146.841V239.274H145.059V239.9ZM146.547 239.695L151.782 253.952L152.37 253.736L147.135 239.479L146.547 239.695ZM152.076 253.531H150.266V254.157H152.076V253.531ZM150.561 253.739L146.301 241.738L145.711 241.947L149.971 253.948L150.561 253.739ZM146.006 241.529H145.894V242.155H146.006V241.529ZM145.6 241.738L141.339 253.739L141.929 253.948L146.189 241.947L145.6 241.738ZM142.302 248.588H149.598V247.962H142.302V248.588ZM149.285 248.275V249.806H149.911V248.275H149.285ZM149.598 249.493H142.302V250.119H149.598V249.493ZM142.615 249.806V248.275H141.989V249.806H142.615ZM165.602 239.587H165.915V239.274H165.602V239.587ZM165.602 253.844V254.157H165.915V253.844H165.602ZM163.931 253.844L163.674 254.022L163.768 254.157H163.931V253.844ZM156.162 242.65L156.42 242.471L156.326 242.337H156.162V242.65ZM156.023 242.65V242.337H155.71V242.65H156.023ZM156.023 253.844V254.157H156.336V253.844H156.023ZM154.297 253.844H153.984V254.157H154.297V253.844ZM154.297 239.587V239.274H153.984V239.587H154.297ZM155.968 239.587L156.225 239.408L156.131 239.274H155.968V239.587ZM163.764 250.809L163.507 250.987L163.601 251.122H163.764V250.809ZM163.903 250.809V251.122H164.216V250.809H163.903ZM163.903 239.587V239.274H163.591V239.587H163.903ZM165.289 239.587V253.844H165.915V239.587H165.289ZM165.602 253.531H163.931V254.157H165.602V253.531ZM164.188 253.665L156.42 242.471L155.905 242.828L163.674 254.022L164.188 253.665ZM156.162 242.337H156.023V242.963H156.162V242.337ZM155.71 242.65V253.844H156.336V242.65H155.71ZM156.023 253.531H154.297V254.157H156.023V253.531ZM154.61 253.844V239.587H153.984V253.844H154.61ZM154.297 239.9H155.968V239.274H154.297V239.9ZM155.711 239.765L163.507 250.987L164.021 250.63L156.225 239.408L155.711 239.765ZM163.764 251.122H163.903V250.496H163.764V251.122ZM164.216 250.809V239.587H163.591V250.809H164.216ZM163.903 239.9H165.602V239.274H163.903V239.9ZM169.057 253.844H168.744V254.157H169.057V253.844ZM169.057 239.587V239.274H168.744V239.587H169.057ZM177.201 240.443L177.044 240.714L177.045 240.714L177.201 240.443ZM179.464 242.887L179.183 243.025L179.183 243.026L179.464 242.887ZM179.457 250.523L179.737 250.662L179.738 250.662L179.457 250.523ZM177.146 252.988L177.3 253.26L177.3 253.26L177.146 252.988ZM170.783 252.312H170.47V252.625H170.783V252.312ZM176.276 251.63L176.117 251.36L176.117 251.36L176.276 251.63ZM178.016 243.715L177.731 243.843L177.731 243.844L178.016 243.715ZM176.331 241.794L176.17 242.062L176.171 242.062L176.331 241.794ZM170.783 241.118V240.805H170.47V241.118H170.783ZM173.456 253.531H169.057V254.157H173.456V253.531ZM169.37 253.844V239.587H168.744V253.844H169.37ZM169.057 239.9H173.651V239.274H169.057V239.9ZM173.651 239.9C174.991 239.9 176.118 240.176 177.044 240.714L177.358 240.172C176.318 239.569 175.077 239.274 173.651 239.274V239.9ZM177.045 240.714C177.973 241.248 178.685 242.015 179.183 243.025L179.745 242.748C179.194 241.632 178.398 240.77 177.358 240.172L177.045 240.714ZM179.183 243.026C179.682 244.031 179.938 245.248 179.938 246.687H180.563C180.563 245.175 180.295 243.858 179.744 242.748L179.183 243.026ZM179.938 246.687C179.938 248.136 179.68 249.365 179.176 250.385L179.738 250.662C180.292 249.537 180.563 248.209 180.563 246.687H179.938ZM179.177 250.384C178.674 251.397 177.947 252.172 176.991 252.715L177.3 253.26C178.368 252.652 179.181 251.784 179.737 250.662L179.177 250.384ZM176.992 252.715C176.037 253.254 174.863 253.531 173.456 253.531V254.157C174.945 254.157 176.231 253.863 177.3 253.26L176.992 252.715ZM170.783 252.625H173.345V251.999H170.783V252.625ZM173.345 252.625C174.562 252.625 175.598 252.39 176.434 251.9L176.117 251.36C175.403 251.779 174.485 251.999 173.345 251.999V252.625ZM176.434 251.9C177.266 251.412 177.888 250.714 178.294 249.817L177.724 249.559C177.369 250.341 176.835 250.939 176.117 251.36L176.434 251.9ZM178.294 249.817C178.697 248.927 178.893 247.881 178.893 246.687H178.267C178.267 247.814 178.082 248.768 177.724 249.559L178.294 249.817ZM178.893 246.687C178.893 245.503 178.699 244.466 178.301 243.586L177.731 243.844C178.084 244.625 178.267 245.57 178.267 246.687H178.893ZM178.301 243.587C177.901 242.696 177.297 242.005 176.492 241.525L176.171 242.062C176.86 242.473 177.379 243.063 177.731 243.843L178.301 243.587ZM176.493 241.526C175.685 241.039 174.695 240.805 173.54 240.805V241.431C174.612 241.431 175.483 241.648 176.17 242.062L176.493 241.526ZM173.54 240.805H170.783V241.431H173.54V240.805ZM170.47 241.118V252.312H171.096V241.118H170.47ZM183.146 253.844H182.833V254.157H183.146V253.844ZM183.146 239.587V239.274H182.833V239.587H183.146ZM191.751 239.587H192.064V239.274H191.751V239.587ZM191.751 241.118V241.431H192.064V241.118H191.751ZM184.873 241.118V240.805H184.56V241.118H184.873ZM184.873 245.936H184.56V246.249H184.873V245.936ZM191.305 245.936H191.618V245.623H191.305V245.936ZM191.305 247.467V247.78H191.618V247.467H191.305ZM184.873 247.467V247.154H184.56V247.467H184.873ZM184.873 252.312H184.56V252.625H184.873V252.312ZM191.862 252.312H192.175V251.999H191.862V252.312ZM191.862 253.844V254.157H192.175V253.844H191.862ZM183.459 253.844V239.587H182.833V253.844H183.459ZM183.146 239.9H191.751V239.274H183.146V239.9ZM191.438 239.587V241.118H192.064V239.587H191.438ZM191.751 240.805H184.873V241.431H191.751V240.805ZM184.56 241.118V245.936H185.186V241.118H184.56ZM184.873 246.249H191.305V245.623H184.873V246.249ZM190.992 245.936V247.467H191.618V245.936H190.992ZM191.305 247.154H184.873V247.78H191.305V247.154ZM184.56 247.467V252.312H185.186V247.467H184.56ZM184.873 252.625H191.862V251.999H184.873V252.625ZM191.549 252.312V253.844H192.175V252.312H191.549ZM191.862 253.531H183.146V254.157H191.862V253.531ZM194.389 253.844H194.076V254.157H194.389V253.844ZM194.389 252.591L194.129 252.417L194.076 252.496V252.591H194.389ZM202.074 241.118L202.334 241.293L202.661 240.805H202.074V241.118ZM194.305 241.118H193.993V241.431H194.305V241.118ZM194.305 239.587V239.274H193.993V239.587H194.305ZM204.135 239.587H204.448V239.274H204.135V239.587ZM204.135 240.84L204.395 241.014L204.448 240.935V240.84H204.135ZM196.45 252.312L196.19 252.138L195.863 252.625H196.45V252.312ZM204.218 252.312H204.531V251.999H204.218V252.312ZM204.218 253.844V254.157H204.531V253.844H204.218ZM194.702 253.844V252.591H194.076V253.844H194.702ZM194.649 252.765L202.334 241.293L201.814 240.944L194.129 252.417L194.649 252.765ZM202.074 240.805H194.305V241.431H202.074V240.805ZM194.618 241.118V239.587H193.993V241.118H194.618ZM194.305 239.9H204.135V239.274H194.305V239.9ZM203.822 239.587V240.84H204.448V239.587H203.822ZM203.875 240.666L196.19 252.138L196.71 252.486L204.395 241.014L203.875 240.666ZM196.45 252.625H204.218V251.999H196.45V252.625ZM203.905 252.312V253.844H204.531V252.312H203.905ZM204.218 253.531H194.389V254.157H204.218V253.531Z" fill="#1A1E1F"/>
<path d="M229.411 50.6977C229.483 50.6943 229.551 50.6663 229.605 50.6185C229.658 50.5706 229.694 50.5058 229.705 50.4348C229.811 49.7714 230.106 49.7401 230.732 49.7464H245.697C245.746 49.7461 245.794 49.7341 245.838 49.7112C245.882 49.6883 245.919 49.6553 245.947 49.6149C245.976 49.5757 245.995 49.5304 246.002 49.4825C246.01 49.4346 246.006 49.3856 245.991 49.3395L245.453 47.5682C245.433 47.5044 245.393 47.4487 245.339 47.4092C245.284 47.3698 245.219 47.3488 245.152 47.3492H236.778C236.321 47.3492 235.858 47.3492 235.407 47.3492H234.781H230.331C230.285 47.3446 230.239 47.3556 230.2 47.3805C228.948 47.95 228.66 48.82 229.085 50.51C229.112 50.5723 229.158 50.6243 229.217 50.6581C229.276 50.692 229.344 50.7059 229.411 50.6977Z" fill="#3C4C4B"/>
<path d="M238.762 61.2316C239.074 61.1986 239.373 61.0909 239.635 60.9177C239.896 60.7444 240.112 60.5108 240.264 60.2365C240.483 59.7232 240.345 59.0785 239.851 58.2649C239.816 58.2049 239.761 58.1586 239.697 58.1336C239.632 58.1086 239.56 58.1063 239.494 58.1272C239.427 58.1481 239.369 58.1909 239.329 58.2488C239.29 58.3067 239.27 58.3763 239.275 58.4464C239.275 58.897 239.15 59.0097 238.649 59.1349C236.563 59.6648 234.489 60.2052 232.428 60.7559L230.619 61.2316C229.786 61.4507 229.048 61.7887 229.211 62.8214C229.211 63.5788 229.836 63.8792 230.5 64.0732L232.328 64.6365C234.355 65.2708 236.385 65.8967 238.418 66.5142C238.906 66.6644 239.043 66.7834 239 67.2278C238.99 67.2968 239.005 67.3671 239.041 67.4264C239.078 67.4858 239.134 67.5306 239.2 67.5532H239.306C239.358 67.5533 239.409 67.5408 239.455 67.5168C239.501 67.4928 239.54 67.458 239.569 67.4155C240.114 66.6081 240.276 65.9885 240.082 65.4627C239.947 65.1803 239.744 64.9361 239.49 64.7525C239.236 64.5688 238.941 64.4515 238.63 64.4112C236.847 63.923 235.05 63.3534 233.316 62.8026L232.947 62.69L233.348 62.5773C235.119 62.1329 236.947 61.6447 238.762 61.2316Z" fill="#3C4C4B"/>
<path d="M229.392 44.489C229.463 44.504 229.538 44.4941 229.602 44.4611C229.667 44.4281 229.719 44.3739 229.749 44.3075C230.012 43.6816 230.469 43.6002 231.314 43.6002C235.138 43.6002 239.281 43.6002 243.988 43.6002C244.802 43.6002 245.24 43.7004 245.403 44.3012C245.42 44.3674 245.459 44.4259 245.514 44.4677C245.568 44.5096 245.634 44.5324 245.703 44.5328C245.771 44.5307 245.837 44.5063 245.89 44.4634C245.943 44.4204 245.981 44.3613 245.997 44.295C246.298 43.112 246.241 42.3109 245.816 41.7914C245.39 41.2719 244.564 40.9527 243.156 40.9527H240.151C237.26 40.9527 234.37 40.9527 231.483 40.9527C230.606 40.9527 230.024 40.9151 229.743 40.2579C229.713 40.1911 229.662 40.1362 229.597 40.1022C229.532 40.0681 229.458 40.0568 229.386 40.0702C229.316 40.0858 229.254 40.1248 229.21 40.1806C229.165 40.2363 229.141 40.3056 229.142 40.3769V44.1948C229.143 44.2651 229.169 44.3327 229.215 44.3863C229.26 44.4398 229.323 44.4761 229.392 44.489Z" fill="#3C4C4B"/>
<path d="M240.483 54.6409C240.051 50.679 236.728 50.2596 235.445 50.1282H235.344C234.449 50.0218 231.977 50.2471 230.469 51.6178C230.062 51.9841 229.742 52.4366 229.533 52.9424C229.324 53.4482 229.231 53.9943 229.261 54.5408C229.38 58.4464 233.748 59.0285 233.792 59.0347C234.228 59.0907 234.667 59.12 235.107 59.1224C236.428 59.1819 237.727 58.7717 238.774 57.9644C239.742 57.1397 240.356 55.9745 240.489 54.7098C240.492 54.6866 240.49 54.6632 240.483 54.6409ZM230.675 53.2952C231.22 52.7507 232.39 52.106 235.006 52.1436C235.05 52.1436 239.294 52.1436 239.613 54.6472C239.605 54.9355 239.538 55.2192 239.417 55.4807C239.295 55.7423 239.121 55.9762 238.906 56.1681C237.998 57.0068 236.308 57.3073 234.011 57.0319C233.905 57.0319 230.375 56.4936 230.112 54.4719C230.139 54.0211 230.341 53.5988 230.675 53.2952Z" fill="#3C4C4B"/>
<path d="M241.948 86.1238C241.77 86.1136 241.592 86.1394 241.424 86.1996C241.256 86.2598 241.102 86.3533 240.971 86.4743C240.871 86.5741 240.791 86.6931 240.737 86.8243C240.683 86.9555 240.657 87.0961 240.658 87.2379C240.663 87.3919 240.698 87.5434 240.762 87.6836C240.826 87.8238 240.917 87.95 241.03 88.0548C241.143 88.1596 241.276 88.2409 241.42 88.2941C241.565 88.3473 241.719 88.3712 241.873 88.3645H241.91C242.256 88.3666 242.589 88.2368 242.843 88.0015C242.946 87.9042 243.029 87.7869 243.086 87.6568C243.143 87.5266 243.173 87.3862 243.174 87.2441C243.171 87.0887 243.137 86.9356 243.073 86.794C243.009 86.6524 242.916 86.5253 242.802 86.4205C242.687 86.3157 242.552 86.2353 242.405 86.1843C242.258 86.1333 242.103 86.1127 241.948 86.1238Z" fill="#3C4C4B"/>
<path d="M239.989 95.8251C240.265 94.9646 240.251 94.0374 239.951 93.1852C239.65 92.333 239.078 91.6026 238.324 91.1058C238.296 91.0907 238.266 91.0781 238.236 91.0682H238.718C239.212 91.0682 239.381 91.1371 239.494 91.5502C239.512 91.6164 239.551 91.6748 239.605 91.7167C239.66 91.7585 239.726 91.7814 239.795 91.7818C239.864 91.7821 239.932 91.7588 239.986 91.7155C240.041 91.6723 240.079 91.6118 240.095 91.5439C240.21 91.2369 240.251 90.9073 240.217 90.5814C240.182 90.2555 240.072 89.9421 239.895 89.6662C239.68 89.4455 239.416 89.2796 239.124 89.1826C238.832 89.0857 238.521 89.0605 238.217 89.1092C236.458 89.1593 234.656 89.1467 232.916 89.1092H230.844C230.763 89.1092 230.669 89.1092 230.575 89.1092C229.993 89.1092 229.786 89.1092 229.674 88.6961C229.656 88.6272 229.616 88.5665 229.559 88.5243C229.502 88.482 229.432 88.4609 229.361 88.4645C229.29 88.4676 229.222 88.4947 229.169 88.5413C229.115 88.588 229.079 88.6513 229.067 88.7211C229.023 88.9564 229.004 89.1955 229.01 89.4346C229.01 90.6301 229.48 91.0495 230.794 91.0495H237.172C237.147 91.1061 237.139 91.1688 237.149 91.23C237.159 91.2911 237.187 91.348 237.228 91.3937C237.429 91.594 237.629 91.7818 237.854 91.9695C238.274 92.3319 238.658 92.7344 239 93.1713C239.205 93.4058 239.341 93.6922 239.394 93.9991C239.447 94.306 239.415 94.6216 239.3 94.9113C239.018 95.4433 238.324 95.7249 237.341 95.6999C235.795 95.6561 234.212 95.6686 232.697 95.6999H230.819C230.308 95.6393 229.794 95.7808 229.386 96.0942C229.105 96.4478 228.975 96.8973 229.023 97.346V97.8092C229.022 97.8649 229.036 97.9197 229.064 97.9681C229.091 98.0166 229.131 98.0567 229.179 98.0846L229.311 98.1597C229.357 98.1846 229.408 98.1975 229.461 98.1972C229.504 98.2062 229.549 98.2062 229.592 98.1972C229.637 98.1777 229.677 98.1476 229.707 98.1094C229.738 98.0712 229.758 98.0262 229.768 97.9782C229.83 97.7153 229.943 97.6214 230.494 97.6214H237.153C237.163 97.6895 237.194 97.753 237.241 97.8029C237.441 98.0032 237.641 98.191 237.867 98.3787C238.288 98.7417 238.672 99.1464 239.012 99.5867C239.217 99.8199 239.354 100.105 239.407 100.411C239.46 100.717 239.427 101.032 239.313 101.32C239.031 101.859 238.336 102.14 237.354 102.109C235.801 102.072 234.224 102.109 232.697 102.109H230.819C230.308 102.052 229.795 102.193 229.386 102.503C229.106 102.857 228.976 103.307 229.023 103.755V104.218C229.021 104.273 229.035 104.328 229.063 104.375C229.09 104.423 229.131 104.462 229.179 104.488L229.311 104.563C229.356 104.589 229.408 104.605 229.461 104.606C229.506 104.605 229.551 104.594 229.592 104.575C229.637 104.556 229.677 104.526 229.707 104.487C229.738 104.449 229.758 104.404 229.768 104.356C229.83 104.093 229.943 103.999 230.494 103.999H237.216C237.811 104.054 238.407 103.905 238.907 103.578C239.407 103.251 239.782 102.764 239.97 102.197C240.246 101.336 240.232 100.409 239.932 99.5568C239.631 98.7046 239.06 97.9743 238.305 97.4775H238.267C238.669 97.367 239.037 97.158 239.337 96.8695C239.638 96.581 239.862 96.222 239.989 95.8251Z" fill="#3C4C4B"/>
<path d="M247.055 80.9976C246.964 79.9618 246.592 78.9706 245.978 78.131C245.526 77.514 244.883 77.0636 244.148 76.8497C243.414 76.6358 242.629 76.6704 241.916 76.948C241.044 77.2575 240.308 77.8647 239.838 78.663C239.275 79.6206 238.731 80.6721 238.217 81.7925C237.535 83.2884 236.828 84.5715 235.132 85.2161C235.064 85.2436 235.008 85.2934 234.973 85.3572C234.937 85.4209 234.925 85.4948 234.938 85.5666C234.95 85.639 234.987 85.7047 235.043 85.7518C235.1 85.7989 235.171 85.8242 235.244 85.8233H236.033C236.621 85.8233 237.228 85.8233 237.817 85.8233C238.119 85.874 238.431 85.8221 238.7 85.6758C238.97 85.5295 239.184 85.2972 239.306 85.0158C239.469 84.6841 239.626 84.3461 239.788 84.0144C240.183 83.1757 240.596 82.3057 241.04 81.5108C241.479 80.6903 242.029 79.9342 242.674 79.2638C242.873 79.0754 243.11 78.9316 243.369 78.8421C243.628 78.7525 243.903 78.7192 244.176 78.7443C244.422 78.7535 244.664 78.8138 244.886 78.9216C245.108 79.0293 245.305 79.1821 245.465 79.3702C245.855 79.8381 246.114 80.4002 246.217 81.0001C246.321 81.6 246.264 82.2165 246.054 82.7876C245.846 83.3317 245.517 83.8207 245.09 84.2169C244.664 84.613 244.152 84.9057 243.594 85.0722C243.544 85.0903 243.5 85.1204 243.465 85.1597C243.43 85.199 243.406 85.2463 243.393 85.2975C243.384 85.3505 243.387 85.4051 243.403 85.4564C243.42 85.5078 243.449 85.5542 243.487 85.5917C243.717 85.7632 243.874 86.0146 243.927 86.2961C243.98 86.5777 243.926 86.869 243.775 87.1126C243.746 87.17 243.735 87.2351 243.744 87.2989C243.753 87.3628 243.781 87.4223 243.825 87.4694C243.856 87.4998 243.892 87.5238 243.932 87.5399C243.971 87.5561 244.014 87.564 244.057 87.5633C244.098 87.5726 244.141 87.5726 244.182 87.5633C245.046 87.18 245.758 86.5192 246.204 85.6856C246.997 84.2595 247.296 82.6113 247.055 80.9976Z" fill="#3C4C4B"/>
<path d="M238.224 86.2114C236.465 86.2677 234.668 86.2552 232.935 86.2114H230.85C230.763 86.2114 230.669 86.2114 230.581 86.2114C230.005 86.2114 229.793 86.2114 229.68 85.7983C229.661 85.7306 229.62 85.6713 229.563 85.6303C229.506 85.5893 229.437 85.5691 229.367 85.573C229.296 85.5761 229.228 85.6032 229.175 85.6498C229.122 85.6964 229.086 85.7598 229.073 85.8296C229.03 86.0628 229.011 86.2998 229.017 86.5369C229.017 87.7323 229.48 88.158 230.8 88.158H232.628C234.656 88.158 236.69 88.158 238.718 88.158C239.212 88.158 239.381 88.2268 239.494 88.6399C239.512 88.7061 239.551 88.7646 239.605 88.8064C239.659 88.8482 239.726 88.8711 239.795 88.8715C239.864 88.8718 239.932 88.8485 239.986 88.8052C240.041 88.762 240.079 88.7015 240.095 88.6336C240.21 88.3266 240.251 87.9971 240.217 87.6711C240.182 87.3452 240.072 87.0318 239.895 86.7559C239.679 86.5401 239.415 86.3782 239.124 86.2836C238.834 86.189 238.525 86.1642 238.224 86.2114Z" fill="#3C4C4B"/>
<path d="M235.294 77.1295C235.387 76.9947 235.448 76.8412 235.474 76.68C235.5 76.5188 235.49 76.3538 235.445 76.1969C235.395 76.0167 235.308 75.8488 235.19 75.7043C235.071 75.5598 234.923 75.4419 234.756 75.3582C234.557 75.2607 234.339 75.2053 234.117 75.1956C233.895 75.1859 233.674 75.2221 233.467 75.3019C232.642 75.5887 231.913 76.1003 231.364 76.779C230.112 78.3187 229.705 80.1651 230.037 82.5999C230.171 83.2818 230.4 83.9414 230.719 84.5589C230.794 84.7217 230.875 84.8906 230.944 85.0534C231.029 85.1996 231.146 85.325 231.286 85.4203C231.425 85.5156 231.585 85.5785 231.752 85.6042C231.923 85.6166 232.094 85.6166 232.265 85.6042H232.953C233.036 85.6208 233.123 85.6037 233.193 85.5568C233.264 85.5098 233.312 85.4368 233.329 85.3538C233.346 85.2708 233.329 85.1846 233.282 85.1142C233.235 85.0438 233.162 84.9949 233.079 84.9783C232.597 84.7983 232.161 84.5151 231.801 84.1485C231.441 83.7819 231.166 83.3409 230.994 82.8565C230.638 81.8438 230.638 80.7397 230.994 79.727C231.149 79.2433 231.434 78.8119 231.818 78.4804C232.203 78.149 232.671 77.9305 233.173 77.8493C233.35 77.8165 233.53 77.7977 233.711 77.793C233.876 77.7898 234.041 77.7772 234.205 77.7554C234.421 77.7335 234.629 77.6664 234.817 77.5586C235.004 77.4507 235.167 77.3045 235.294 77.1295Z" fill="#3C4C4B"/>
<path d="M235.657 104.112H235.557C234.656 104.006 232.184 104.225 230.675 105.602C230.268 105.967 229.949 106.42 229.741 106.926C229.533 107.432 229.441 107.979 229.473 108.525C229.586 112.43 233.961 113.012 233.999 113.019C234.435 113.074 234.874 113.104 235.313 113.106C236.636 113.164 237.937 112.754 238.987 111.948C239.952 111.122 240.564 109.957 240.696 108.694V108.637C240.258 104.663 236.915 104.262 235.657 104.112ZM230.882 107.279C231.433 106.735 232.597 106.09 235.213 106.128C235.257 106.128 239.5 106.128 239.82 108.6C239.815 108.889 239.75 109.174 239.628 109.436C239.506 109.698 239.33 109.931 239.112 110.121C238.211 110.959 236.515 111.26 234.218 110.985C234.118 110.985 230.581 110.446 230.318 108.425C230.353 107.985 230.555 107.575 230.882 107.279Z" fill="#3C4C4B"/>
<path d="M235.657 113.25H235.557C234.662 113.138 232.184 113.363 230.675 114.74C230.268 115.105 229.948 115.558 229.74 116.064C229.532 116.57 229.441 117.117 229.473 117.663C229.586 121.569 233.961 122.144 233.999 122.151C234.434 122.209 234.873 122.239 235.313 122.238C236.636 122.296 237.937 121.886 238.987 121.08C239.95 120.255 240.562 119.093 240.696 117.832V117.776C240.258 113.801 236.915 113.407 235.657 113.25ZM230.882 116.417C231.433 115.867 232.622 115.222 235.213 115.259C235.257 115.259 239.5 115.291 239.82 117.763C239.815 118.052 239.75 118.337 239.628 118.599C239.506 118.861 239.331 119.095 239.112 119.284C238.211 120.123 236.515 120.423 234.218 120.154C234.118 120.154 230.581 119.616 230.318 117.588C230.345 117.139 230.548 116.719 230.882 116.417Z" fill="#3C4C4B"/>
<path d="M235.657 130.813H235.557H235.438H237.216C237.811 130.871 238.409 130.724 238.91 130.396C239.411 130.068 239.784 129.579 239.97 129.01C240.245 128.15 240.231 127.223 239.93 126.371C239.63 125.519 239.059 124.789 238.305 124.291C238.305 124.291 238.242 124.291 238.217 124.254H238.699C239.169 124.254 239.363 124.322 239.475 124.735C239.493 124.802 239.532 124.86 239.586 124.902C239.641 124.944 239.707 124.967 239.776 124.967C239.845 124.967 239.913 124.944 239.968 124.901C240.022 124.858 240.061 124.797 240.076 124.729C240.19 124.422 240.231 124.093 240.196 123.767C240.162 123.441 240.052 123.128 239.876 122.851C239.661 122.632 239.396 122.467 239.105 122.37C238.813 122.273 238.502 122.247 238.198 122.294C236.44 122.351 234.643 122.338 232.91 122.326H230.825C230.738 122.326 230.65 122.326 230.556 122.326C229.98 122.326 229.768 122.326 229.655 121.913C229.638 121.844 229.597 121.784 229.539 121.743C229.482 121.702 229.412 121.682 229.342 121.687C229.271 121.69 229.203 121.718 229.15 121.764C229.097 121.811 229.061 121.874 229.048 121.944C229.005 122.177 228.986 122.414 228.992 122.651C228.992 123.847 229.461 124.272 230.775 124.272H237.153C237.128 124.33 237.119 124.394 237.129 124.456C237.139 124.518 237.167 124.576 237.21 124.623L237.835 125.192C238.256 125.557 238.639 125.961 238.981 126.4C239.186 126.634 239.323 126.919 239.376 127.225C239.429 127.531 239.396 127.845 239.281 128.134C239 128.672 238.305 128.96 237.322 128.929C235.776 128.885 234.193 128.898 232.684 128.929H230.807C230.297 128.869 229.783 129.008 229.373 129.317C229.094 129.671 228.964 130.12 229.01 130.569V131.032C229.01 131.088 229.024 131.143 229.051 131.191C229.079 131.239 229.119 131.28 229.167 131.307L229.298 131.376C229.343 131.406 229.395 131.421 229.448 131.42C229.52 131.423 229.591 131.4 229.647 131.355C229.703 131.31 229.742 131.247 229.755 131.176C229.818 130.913 229.93 130.819 230.481 130.819H234.712C233.241 130.875 231.826 131.402 230.675 132.321C230.268 132.687 229.948 133.139 229.74 133.645C229.532 134.152 229.441 134.698 229.473 135.244C229.479 135.792 229.592 136.333 229.807 136.837C230.022 137.34 230.334 137.797 230.725 138.18C230.394 138.18 230.243 138.08 230.156 137.767C230.137 137.697 230.095 137.636 230.037 137.594C229.979 137.552 229.908 137.531 229.836 137.535C229.766 137.539 229.699 137.567 229.646 137.613C229.592 137.66 229.556 137.722 229.542 137.792C229.499 138.027 229.481 138.266 229.486 138.505C229.486 139.701 229.955 140.12 231.27 140.12H232.985C235.056 140.12 237.122 140.12 239.194 140.12C239.663 140.12 239.82 140.195 239.945 140.602C239.963 140.669 240.003 140.728 240.058 140.77C240.114 140.812 240.182 140.835 240.251 140.834C240.321 140.834 240.389 140.811 240.443 140.767C240.498 140.724 240.536 140.664 240.552 140.596C240.667 140.289 240.71 139.96 240.676 139.634C240.642 139.308 240.533 138.995 240.358 138.718C240.125 138.447 239.803 138.268 239.45 138.211C240.159 137.419 240.598 136.421 240.702 135.363C240.258 131.389 236.915 130.994 235.657 130.813ZM230.882 133.986C231.433 133.435 232.597 132.791 235.213 132.828C235.257 132.828 239.5 132.86 239.82 135.332C239.815 135.621 239.75 135.906 239.628 136.168C239.506 136.43 239.331 136.663 239.112 136.853C238.211 137.692 236.515 137.992 234.218 137.723C234.118 137.723 230.581 137.185 230.318 135.157C230.352 134.717 230.554 134.306 230.882 134.011V133.986Z" fill="#3C4C4B"/>
<path d="M235.839 68.2229C235.983 68.5565 236.104 68.8995 236.202 69.2494C236.396 69.9441 236.546 70.6639 236.69 71.3587C236.834 72.0534 237.003 72.8608 237.21 73.6056C237.227 73.663 237.26 73.7148 237.303 73.7559H237.341C237.379 73.7834 237.424 73.8017 237.47 73.8093C237.517 73.8169 237.565 73.8136 237.61 73.7997C237.683 73.7859 237.754 73.765 237.823 73.7371C238.288 73.6194 238.724 73.4084 239.105 73.1168C239.486 72.8252 239.804 72.4591 240.039 72.0409C240.275 71.5913 240.414 71.0972 240.447 70.5906C240.481 70.0839 240.408 69.5759 240.233 69.0992C240.004 68.5226 239.655 68.0013 239.209 67.5697C238.763 67.1381 238.231 66.8061 237.648 66.5956C236.774 66.2206 235.832 66.0346 234.881 66.0497C233.931 66.0648 232.995 66.2807 232.134 66.6832C229.711 67.8474 228.854 69.5999 229.511 72.0159C229.571 72.3254 229.67 72.6261 229.805 72.9109C229.91 73.1875 230.063 73.4437 230.256 73.6682L230.35 73.7872C230.71 74.2384 231.192 74.5772 231.739 74.7636C231.871 74.8132 232.011 74.8386 232.152 74.8387C232.324 74.8409 232.494 74.8 232.647 74.7197C232.771 74.6578 232.879 74.5698 232.966 74.4617C233.052 74.3536 233.114 74.2281 233.147 74.0938C233.179 73.9787 233.185 73.8581 233.166 73.7404C233.147 73.6226 233.102 73.5104 233.035 73.4116C232.947 73.2804 232.833 73.1695 232.699 73.0864C232.565 73.0032 232.415 72.9498 232.259 72.9297H231.933C231.825 72.9361 231.716 72.9361 231.608 72.9297C231.307 72.8824 231.026 72.7518 230.796 72.5526C230.566 72.3535 230.396 72.0938 230.306 71.8031C230.093 71.1823 230.093 70.5085 230.306 69.8878L230.337 69.8064C231.351 68.0351 235.513 68.2041 235.557 68.2104C235.601 68.2166 235.664 68.2229 235.839 68.2229ZM238.048 72.8733L237.942 72.9422L237.854 72.9797C237.742 72.3538 237.61 71.7592 237.479 71.1709L237.335 70.545C237.156 69.8488 237.035 69.1392 236.972 68.4232C238.061 68.6548 239.532 69.1805 239.626 70.3447C239.719 71.5089 238.68 72.4477 238.048 72.8733Z" fill="#3C4C4B"/>
<path d="M168.955 37.723C159.467 34.3619 147.568 37.723 143.406 45.2338C140.996 40.9589 134.712 32.9161 132.04 29.1732C109.363 -2.64753 70.9895 0.870025 49.446 16.1357C36.033 25.6243 34.656 46.1163 47.7248 57.9458C57.2447 66.5707 68.874 73.2991 80.4406 79.1262C96.8329 87.3818 114.008 94.0727 130.888 101.346C138.399 104.582 141.816 109.432 140.996 118.245C140.007 128.885 140.758 139.738 140.295 150.792C130.281 126.332 109 116.855 86.662 107.717C69.4748 100.688 52.538 92.4453 37.1096 82.3058C20.3855 71.3087 15.153 52.4316 21.1742 35.8328C25.7996 23.0707 35.7514 15.1781 47.7624 10.4651C79.0573 -1.73998 110.352 -1.07026 140.927 13.3442C151.048 18.1511 162.408 25.2738 168.955 37.723Z" fill="#1A1E1F"/>
</g>
<defs>
<clipPath id="clip0_4_145">
<rect width="252.819" height="261" fill="white"/>
</clipPath>
</defs>
</svg>
