
<svg width="253" height="261" viewBox="0 0 253 261" fill="none" xmlns="http://www.w3.org/2000/svg">
<g clip-path="url(#clip0_4_33)">
<path d="M169.074 41.1152C162.359 45.6906 161.701 53.1325 161.745 61.9264C161.939 105.683 161.839 149.44 161.827 193.196C161.827 210.183 157.401 216.186 144.965 216.248C141.698 216.365 138.429 216.096 135.226 215.447C143.362 211.867 143.682 203.705 143.632 194.517C143.425 152.068 143.544 109.614 143.544 67.1652C143.544 46.0661 147.675 40.5519 163.373 40.7397C165.275 40.7647 167.172 40.9838 169.074 41.1152Z" fill="#3C4C4B"/>
<path d="M253.139 258.684C248.677 258.684 244.158 259.103 239.751 258.59C233.167 257.82 229.505 252.469 229.48 243.975C229.399 218.22 229.48 192.464 229.399 166.708C229.438 163.07 229.147 159.435 228.529 155.849C226.2 143.5 215.554 136.534 203.167 139.156C189.735 142.004 180.009 150.291 171.785 160.768C170.533 162.346 169.444 164.029 168.273 165.657L166.277 164.68C167.729 161.444 168.442 157.501 170.752 155.085C185.968 139.194 204.219 132.59 225.887 139.181C239.657 143.375 246.185 152.794 246.198 167.146C246.223 193.125 246.223 219.108 246.198 245.096C246.192 250.616 246.605 255.836 253.139 258.684Z" fill="#3C4C4B"/>
<path d="M140.828 178.957C140.828 181.936 140.609 183.238 140.859 184.44C143.532 197.321 137.179 204.024 125.618 207.824C89.316 219.766 54.2218 219.202 21.1805 198.016C11.6417 191.888 5.0072 182.907 0.826181 172.304C-2.55994 163.66 1.80259 155.079 10.4838 152.619C18.0948 150.466 26.1313 155.561 27.8901 164.136C28.854 168.793 28.4159 173.756 29.53 178.363C33.5796 195.112 44.5829 205.333 60.9126 209.902C75.5658 214.036 91.0694 214.092 105.752 210.064C121.118 205.958 130.106 198.122 140.828 178.957Z" fill="#1A1E1F"/>
<path d="M229.655 51.1108C229.728 51.1099 229.798 51.0828 229.852 51.0344C229.906 50.9861 229.941 50.9199 229.95 50.8479C230.062 50.1845 230.356 50.1532 230.982 50.1595H246.004C246.053 50.1592 246.102 50.1472 246.145 50.1243C246.189 50.1014 246.226 50.0684 246.254 50.028C246.283 49.9877 246.302 49.9412 246.309 49.8924C246.317 49.8435 246.313 49.7935 246.298 49.7464L245.735 47.9688C245.716 47.9055 245.677 47.8499 245.624 47.8105C245.571 47.771 245.507 47.7497 245.441 47.7498H237.047C236.584 47.7498 236.121 47.7498 235.67 47.7498H235.044H230.588C230.546 47.7345 230.499 47.7345 230.457 47.7498C229.205 48.3193 228.911 49.1956 229.336 50.8792C229.355 50.9486 229.397 51.0095 229.455 51.0516C229.513 51.0938 229.584 51.1147 229.655 51.1108Z" fill="#3C4C4B"/>
<path d="M239.025 61.6512C239.339 61.6207 239.64 61.514 239.903 61.3406C240.166 61.1672 240.382 60.9322 240.534 60.656C240.753 60.1428 240.615 59.4981 240.121 58.6782C240.085 58.6172 240.029 58.57 239.963 58.5445C239.898 58.519 239.825 58.5166 239.757 58.5376C239.69 58.5587 239.631 58.602 239.592 58.6605C239.552 58.7189 239.533 58.7892 239.538 58.8597C239.538 59.3103 239.413 59.423 238.913 59.5482L232.654 61.1755L230.838 61.6512C230.006 61.8702 229.261 62.2145 229.424 63.2472C229.424 64.0046 230.05 64.3113 230.72 64.499L232.553 65.0623C234.588 65.6882 236.615 66.3141 238.656 66.94C239.144 67.084 239.282 67.2029 239.238 67.6473C239.229 67.7171 239.244 67.7877 239.281 67.8479C239.317 67.9081 239.373 67.9543 239.438 67.979C239.476 67.985 239.514 67.985 239.551 67.979C239.602 67.9791 239.652 67.9666 239.697 67.9426C239.741 67.9185 239.78 67.8837 239.808 67.8413C240.358 67.0339 240.521 66.408 240.321 65.8823C240.183 65.601 239.979 65.3576 239.726 65.1732C239.473 64.9889 239.179 64.8692 238.869 64.8245C237.079 64.3363 235.282 63.7667 233.542 63.2159L233.173 63.1033L233.58 62.9906C235.376 62.59 237.216 62.0643 239.025 61.6512Z" fill="#3C4C4B"/>
<path d="M229.637 44.8709C229.707 44.8867 229.781 44.8772 229.845 44.844C229.909 44.8108 229.96 44.756 229.987 44.6893C230.25 44.0634 230.707 43.9758 231.565 43.9758C235.389 43.9758 239.545 43.9758 244.27 43.9758C245.078 43.9758 245.522 44.076 245.685 44.6768C245.702 44.7429 245.741 44.8013 245.795 44.8422C245.85 44.8832 245.917 44.9043 245.985 44.9021C246.053 44.9025 246.119 44.8798 246.173 44.8378C246.226 44.7957 246.264 44.7368 246.279 44.6706C246.58 43.4814 246.524 42.6802 246.098 42.167C245.672 41.6537 244.846 41.3283 243.432 41.3283H240.415C237.523 41.3283 234.629 41.3283 231.733 41.3283C230.851 41.3283 230.269 41.2907 229.981 40.6335C229.964 40.5505 229.915 40.4775 229.845 40.4306C229.775 40.3836 229.688 40.3666 229.605 40.3832C229.522 40.3998 229.449 40.4486 229.402 40.5191C229.356 40.5895 229.338 40.6757 229.355 40.7587V44.5642C229.356 44.6409 229.386 44.7146 229.437 44.7711C229.489 44.8277 229.56 44.8632 229.637 44.8709Z" fill="#3C4C4B"/>
<path d="M240.753 55.0792C240.314 51.1047 236.997 50.6979 235.702 50.554H235.601C234.706 50.4475 232.222 50.6729 230.713 52.0499C230.303 52.415 229.982 52.8684 229.773 53.3757C229.563 53.8831 229.472 54.4313 229.505 54.9791C229.618 58.8972 234.005 59.473 234.043 59.4793C234.481 59.5382 234.922 59.5675 235.364 59.5669C236.686 59.6247 237.987 59.2147 239.038 58.409C240.027 57.569 240.643 56.372 240.753 55.0792ZM230.92 53.7273C231.471 53.1827 232.641 52.5381 235.257 52.5756C235.307 52.5756 239.557 52.5756 239.883 55.0792C239.874 55.3681 239.807 55.6521 239.684 55.9138C239.561 56.1754 239.386 56.409 239.169 56.6001C238.262 57.4451 236.565 57.7455 234.262 57.4701C234.156 57.4701 230.619 56.9319 230.35 54.904C230.374 54.4421 230.578 54.0081 230.92 53.696V53.7273Z" fill="#3C4C4B"/>
<path d="M242.224 86.6057C242.046 86.5956 241.867 86.6214 241.7 86.6816C241.532 86.7418 241.378 86.8352 241.247 86.9562C241.146 87.0561 241.067 87.1751 241.013 87.3063C240.959 87.4374 240.932 87.5781 240.934 87.7198C240.938 87.8749 240.973 88.0277 241.037 88.1691C241.101 88.3104 241.192 88.4376 241.306 88.5432C241.42 88.6487 241.553 88.7305 241.699 88.7836C241.845 88.8368 242 88.8603 242.155 88.8527H242.186C242.532 88.8568 242.866 88.7267 243.119 88.4897C243.223 88.3918 243.307 88.2737 243.366 88.1424C243.424 88.0112 243.455 87.8696 243.457 87.7261C243.452 87.5707 243.416 87.4178 243.351 87.2766C243.286 87.1354 243.193 87.0088 243.078 86.9042C242.963 86.7997 242.828 86.7193 242.681 86.6681C242.534 86.6168 242.379 86.5956 242.224 86.6057Z" fill="#3C4C4B"/>
<path d="M240.252 96.3321C240.531 95.47 240.519 94.54 240.218 93.6852C239.918 92.8303 239.344 92.0979 238.587 91.6004C238.559 91.5852 238.53 91.5726 238.499 91.5628H238.981C239.476 91.5628 239.651 91.6254 239.757 92.0447C239.776 92.1119 239.816 92.1712 239.871 92.2131C239.927 92.2551 239.995 92.2773 240.064 92.2763C240.135 92.2699 240.201 92.2398 240.252 92.1909C240.303 92.142 240.336 92.0773 240.346 92.0072C240.461 91.7003 240.503 91.3706 240.468 91.0446C240.433 90.7186 240.323 90.4052 240.146 90.1295C239.931 89.9087 239.667 89.7429 239.375 89.6459C239.083 89.5489 238.772 89.5237 238.468 89.5724C236.703 89.6288 234.9 89.6162 233.154 89.6037H231.076H230.807C230.225 89.6037 230.018 89.6037 229.906 89.1906C229.906 89.1076 229.873 89.028 229.814 88.9694C229.755 88.9107 229.676 88.8777 229.593 88.8777C229.51 88.8777 229.43 88.9107 229.372 88.9694C229.313 89.028 229.28 89.1076 229.28 89.1906C229.237 89.4259 229.218 89.665 229.224 89.9042C229.224 91.0996 229.693 91.5252 231.014 91.5252H237.41C237.382 91.5811 237.372 91.6447 237.382 91.7066C237.392 91.7685 237.422 91.8256 237.467 91.8695C237.661 92.0698 237.867 92.2575 238.093 92.4453C238.513 92.8098 238.896 93.2144 239.238 93.6533C239.446 93.886 239.585 94.1725 239.638 94.4802C239.691 94.7879 239.657 95.1043 239.538 95.3933C239.257 95.9316 238.562 96.2132 237.579 96.1882C236.027 96.1444 234.45 96.1569 232.923 96.1882H231.045C230.532 96.1286 230.016 96.2699 229.605 96.5825C229.329 96.9379 229.199 97.3859 229.242 97.8343V98.2975C229.243 98.3529 229.257 98.4073 229.285 98.4555C229.312 98.5037 229.351 98.5441 229.399 98.5729L229.53 98.648C229.579 98.6729 229.632 98.6858 229.687 98.6855C229.728 98.6949 229.771 98.6949 229.812 98.6855C229.857 98.6648 229.896 98.6343 229.927 98.5964C229.959 98.5586 229.981 98.5142 229.993 98.4665C230.05 98.2036 230.169 98.1097 230.719 98.1097H237.398C237.405 98.1786 237.436 98.2429 237.485 98.2912C237.679 98.4915 237.886 98.6793 238.111 98.867C238.531 99.2315 238.915 99.6361 239.257 100.075C239.465 100.308 239.604 100.594 239.657 100.902C239.71 101.21 239.675 101.526 239.557 101.815C239.276 102.353 238.581 102.635 237.598 102.61C236.04 102.566 234.469 102.61 232.929 102.61H231.051C230.538 102.55 230.022 102.692 229.612 103.004C229.335 103.36 229.205 103.808 229.249 104.256V104.719C229.249 104.775 229.264 104.83 229.293 104.879C229.322 104.927 229.362 104.967 229.411 104.995L229.537 105.063C229.58 105.085 229.628 105.097 229.677 105.097C229.726 105.097 229.774 105.085 229.818 105.063C229.863 105.043 229.902 105.012 229.934 104.974C229.965 104.936 229.988 104.892 230 104.844C230.056 104.581 230.175 104.488 230.726 104.488H237.492C238.087 104.544 238.684 104.397 239.185 104.069C239.685 103.742 240.059 103.253 240.246 102.685C240.526 101.823 240.515 100.893 240.214 100.037C239.913 99.1824 239.339 98.45 238.581 97.9532C238.581 97.9532 238.581 97.9532 238.543 97.9532C238.939 97.8439 239.302 97.6389 239.6 97.3562C239.898 97.0735 240.122 96.7218 240.252 96.3321Z" fill="#3C4C4B"/>
<path d="M247.343 81.4672C247.25 80.4289 246.876 79.4357 246.261 78.5943C245.808 77.976 245.164 77.5247 244.428 77.3108C243.692 77.0968 242.906 77.1322 242.192 77.4113C241.316 77.7166 240.576 78.3247 240.108 79.1263C239.513 80.1413 238.97 81.1858 238.481 82.2558C237.792 83.7517 237.085 85.041 235.389 85.6857C235.306 85.7007 235.232 85.748 235.184 85.8172C235.136 85.8865 235.117 85.972 235.132 86.055C235.147 86.138 235.194 86.2117 235.264 86.2598C235.333 86.3079 235.418 86.3266 235.501 86.3116H236.29C236.878 86.3116 237.492 86.3116 238.08 86.3116C238.384 86.363 238.696 86.3107 238.966 86.1631C239.236 86.0155 239.449 85.7812 239.57 85.498C239.732 85.1662 239.895 84.8345 240.052 84.4965C240.452 83.6578 240.865 82.7815 241.335 81.9616C241.779 81.1413 242.331 80.3837 242.975 79.7084C243.174 79.521 243.411 79.3778 243.67 79.2883C243.929 79.1988 244.204 79.1649 244.477 79.1889C244.724 79.1957 244.967 79.255 245.189 79.3629C245.411 79.4708 245.608 79.6249 245.766 79.8148C246.158 80.2824 246.42 80.8453 246.524 81.4466C246.629 82.0478 246.572 82.666 246.361 83.2385C246.153 83.7832 245.822 84.2726 245.395 84.6688C244.967 85.065 244.454 85.3573 243.895 85.523C243.845 85.5422 243.801 85.5734 243.766 85.6138C243.731 85.6541 243.706 85.7025 243.694 85.7546C243.684 85.8075 243.688 85.8621 243.704 85.9135C243.721 85.9648 243.75 86.0113 243.788 86.0487C244.019 86.2194 244.177 86.4708 244.23 86.7528C244.284 87.0348 244.229 87.3265 244.076 87.5697C244.053 87.6179 244.043 87.671 244.045 87.7244C244.048 87.7777 244.064 87.8295 244.092 87.8749C244.12 87.9204 244.159 87.9581 244.206 87.9846C244.252 88.0111 244.304 88.0255 244.358 88.0266C244.401 88.0352 244.446 88.0352 244.489 88.0266C245.352 87.6417 246.064 86.9813 246.511 86.1489C247.293 84.7215 247.586 83.0768 247.343 81.4672Z" fill="#3C4C4B"/>
<path d="M238.468 86.6933C236.703 86.7497 234.907 86.7371 233.167 86.7246H231.076C230.987 86.7184 230.897 86.7184 230.807 86.7246C230.231 86.7246 230.018 86.7246 229.906 86.3053C229.904 86.2642 229.894 86.2239 229.876 86.1867C229.858 86.1495 229.834 86.1162 229.803 86.0886C229.773 86.0609 229.737 86.0396 229.698 86.0258C229.659 86.012 229.618 86.0059 229.577 86.008C229.536 86.01 229.496 86.0201 229.459 86.0378C229.421 86.0554 229.388 86.0802 229.36 86.1107C229.333 86.1412 229.311 86.1769 229.298 86.2156C229.284 86.2544 229.278 86.2955 229.28 86.3366C229.236 86.5718 229.217 86.8109 229.224 87.0501C229.224 88.2456 229.693 88.6712 231.014 88.6712H232.841C234.882 88.6712 236.918 88.6712 238.95 88.6712C239.444 88.6712 239.62 88.74 239.726 89.1531C239.744 89.2203 239.784 89.2796 239.84 89.3215C239.895 89.3635 239.963 89.3857 240.033 89.3847C240.102 89.385 240.17 89.3617 240.225 89.3185C240.279 89.2752 240.318 89.2147 240.333 89.1468C240.449 88.8399 240.49 88.5103 240.456 88.1843C240.421 87.8582 240.31 87.5449 240.133 87.2691C239.919 87.0506 239.657 86.8849 239.368 86.7849C239.079 86.685 238.771 86.6536 238.468 86.6933Z" fill="#3C4C4B"/>
<path d="M235.551 77.6115C235.642 77.4762 235.703 77.3227 235.729 77.1617C235.755 77.0007 235.746 76.8359 235.702 76.6789C235.652 76.4986 235.565 76.3308 235.447 76.1863C235.328 76.0418 235.18 75.9239 235.013 75.8402C234.812 75.7432 234.594 75.6877 234.372 75.677C234.149 75.6662 233.927 75.7004 233.717 75.7776C232.89 76.069 232.16 76.5847 231.608 77.2672C230.356 78.8069 229.943 80.6596 230.281 83.1006C230.412 83.7833 230.642 84.4433 230.964 85.0597C231.039 85.2287 231.12 85.3914 231.189 85.5604C231.275 85.7058 231.392 85.8305 231.531 85.9257C231.671 86.0209 231.83 86.0842 231.996 86.1112C232.168 86.1339 232.342 86.1443 232.516 86.1425H233.204C233.276 86.1425 233.346 86.1176 233.402 86.072C233.458 86.0263 233.497 85.9628 233.511 85.8921C233.527 85.8217 233.517 85.7479 233.484 85.6838C233.451 85.6197 233.396 85.5693 233.329 85.5416C232.847 85.3606 232.41 85.0764 232.049 84.7088C231.688 84.3412 231.411 83.8992 231.239 83.4136C230.884 82.4006 230.884 81.297 231.239 80.2841C231.394 79.8 231.681 79.3683 232.066 79.0369C232.452 78.7054 232.921 78.4872 233.423 78.4064C233.601 78.3736 233.781 78.3548 233.962 78.35C234.131 78.35 234.293 78.35 234.456 78.3125C234.678 78.2791 234.89 78.1994 235.078 78.0786C235.267 77.9578 235.428 77.7987 235.551 77.6115Z" fill="#3C4C4B"/>
<path d="M235.914 104.638H235.814C234.913 104.532 232.434 104.757 230.92 106.134C230.513 106.501 230.193 106.955 229.984 107.462C229.775 107.968 229.682 108.516 229.712 109.063C229.824 112.981 234.212 113.557 234.256 113.563C234.691 113.624 235.13 113.656 235.57 113.657C236.896 113.715 238.199 113.302 239.251 112.493C240.221 111.661 240.837 110.49 240.972 109.22V109.163C240.527 105.189 237.173 104.788 235.914 104.638ZM231.126 107.811C231.677 107.267 232.848 106.622 235.47 106.66C235.514 106.66 239.77 106.66 240.089 109.163C240.081 109.452 240.013 109.736 239.89 109.998C239.768 110.259 239.592 110.493 239.376 110.684C238.474 111.529 236.778 111.83 234.475 111.554C234.368 111.554 230.826 111.016 230.563 108.988C230.59 108.537 230.793 108.115 231.126 107.811Z" fill="#3C4C4B"/>
<path d="M235.914 113.801H235.814C234.913 113.695 232.434 113.92 230.92 115.297C230.513 115.664 230.193 116.118 229.984 116.625C229.775 117.132 229.682 117.679 229.712 118.226C229.824 122.144 234.212 122.72 234.256 122.726C234.691 122.787 235.13 122.819 235.57 122.82C236.896 122.878 238.199 122.465 239.25 121.656C240.216 120.827 240.829 119.661 240.965 118.395V118.339C240.527 114.352 237.172 113.951 235.914 113.801ZM231.126 116.981C231.677 116.43 232.873 115.785 235.47 115.823C235.514 115.823 239.77 115.823 240.089 118.326C240.081 118.616 240.013 118.901 239.89 119.164C239.767 119.426 239.592 119.661 239.376 119.853C238.474 120.692 236.778 120.993 234.475 120.717C234.368 120.717 230.826 120.179 230.563 118.151C230.591 117.702 230.793 117.283 231.126 116.981Z" fill="#3C4C4B"/>
<path d="M235.914 131.439H235.814H237.498C238.094 131.494 238.691 131.345 239.191 131.016C239.692 130.688 240.066 130.199 240.252 129.63C240.532 128.769 240.52 127.839 240.219 126.985C239.918 126.131 239.345 125.4 238.587 124.904C238.587 124.904 238.524 124.904 238.499 124.861H238.981C239.451 124.861 239.651 124.929 239.757 125.343C239.775 125.41 239.815 125.469 239.871 125.511C239.927 125.553 239.994 125.575 240.064 125.574C240.134 125.575 240.201 125.551 240.256 125.508C240.311 125.465 240.349 125.404 240.365 125.336C240.48 125.029 240.522 124.7 240.487 124.374C240.452 124.048 240.342 123.734 240.164 123.459C239.949 123.239 239.684 123.074 239.393 122.976C239.101 122.878 238.791 122.851 238.487 122.895C236.722 122.952 234.925 122.939 233.185 122.895H231.095C231.005 122.889 230.915 122.889 230.826 122.895C230.25 122.895 230.037 122.895 229.924 122.476C229.906 122.407 229.864 122.347 229.805 122.306C229.747 122.265 229.676 122.245 229.605 122.251C229.534 122.254 229.467 122.281 229.413 122.327C229.36 122.374 229.324 122.437 229.311 122.507C229.268 122.742 229.249 122.982 229.255 123.221C229.255 124.416 229.724 124.842 231.045 124.842H237.442C237.415 124.898 237.406 124.961 237.416 125.023C237.426 125.084 237.455 125.141 237.498 125.186C237.692 125.38 237.898 125.574 238.124 125.762C238.544 126.126 238.928 126.531 239.269 126.97C239.477 127.203 239.616 127.489 239.669 127.797C239.722 128.104 239.688 128.421 239.57 128.71C239.288 129.248 238.593 129.536 237.611 129.499C236.058 129.461 234.481 129.499 232.96 129.499H231.082C230.571 129.44 230.056 129.579 229.643 129.887C229.36 130.251 229.23 130.711 229.28 131.17V131.633C229.28 131.689 229.296 131.744 229.324 131.792C229.353 131.841 229.394 131.881 229.443 131.908L229.568 131.977C229.611 132.002 229.659 132.015 229.709 132.015C229.758 132.015 229.807 132.002 229.849 131.977C229.894 131.958 229.934 131.929 229.965 131.892C229.997 131.855 230.019 131.811 230.031 131.764C230.087 131.501 230.206 131.408 230.757 131.408H234.988C233.514 131.462 232.097 131.989 230.945 132.91C230.534 133.272 230.21 133.721 229.996 134.225C229.781 134.728 229.682 135.273 229.705 135.82C229.72 136.929 230.169 137.988 230.957 138.768C230.625 138.768 230.475 138.668 230.381 138.349C230.364 138.28 230.323 138.22 230.266 138.179C230.209 138.138 230.139 138.118 230.068 138.123C229.998 138.125 229.931 138.151 229.877 138.196C229.823 138.242 229.787 138.305 229.774 138.374C229.732 138.609 229.713 138.848 229.718 139.087C229.718 140.289 230.187 140.715 231.508 140.715H239.469C239.939 140.715 240.095 140.79 240.221 141.197C240.239 141.264 240.279 141.323 240.334 141.365C240.39 141.407 240.458 141.429 240.527 141.428C240.598 141.428 240.666 141.404 240.721 141.36C240.776 141.315 240.813 141.253 240.828 141.184C240.943 140.877 240.985 140.548 240.952 140.222C240.918 139.897 240.809 139.583 240.634 139.306C240.398 139.036 240.074 138.856 239.72 138.799C240.431 138.004 240.87 137.002 240.972 135.939C240.527 131.983 237.172 131.583 235.914 131.439ZM231.126 134.612C231.677 134.068 232.847 133.417 235.47 133.46C235.514 133.46 239.77 133.46 240.089 135.964C240.081 136.253 240.013 136.537 239.89 136.799C239.768 137.06 239.592 137.294 239.376 137.485C238.474 138.33 236.778 138.63 234.475 138.355C234.368 138.355 230.826 137.817 230.563 135.789C230.589 135.336 230.791 134.911 231.126 134.606V134.612Z" fill="#3C4C4B"/>
<path d="M236.096 68.6611C236.238 68.9961 236.361 69.3388 236.465 69.6876C236.653 70.3886 236.803 71.1084 236.947 71.8094C237.091 72.5104 237.26 73.3116 237.473 74.0564C237.486 74.1156 237.519 74.1685 237.567 74.2066H237.598C237.639 74.2313 237.685 74.2474 237.732 74.2538C237.779 74.2603 237.827 74.257 237.873 74.2441C237.946 74.2327 238.017 74.2138 238.086 74.1878C238.553 74.0681 238.991 73.855 239.372 73.5613C239.754 73.2676 240.073 72.8994 240.308 72.4791C240.544 72.0284 240.684 71.5333 240.717 71.0256C240.75 70.5179 240.677 70.0089 240.502 69.5311C240.273 68.954 239.923 68.4323 239.476 68.0006C239.029 67.569 238.496 67.2373 237.911 67.0275C237.036 66.6501 236.092 66.4623 235.139 66.4763C234.186 66.4903 233.248 66.7059 232.384 67.1089C229.956 68.2793 229.098 70.0381 229.756 72.4603C229.817 72.7686 229.914 73.0689 230.043 73.3554C230.153 73.6311 230.308 73.887 230.5 74.1127L230.594 74.2316C230.954 74.6847 231.437 75.0256 231.984 75.2143C232.116 75.2634 232.256 75.2888 232.397 75.2894C232.571 75.2887 232.742 75.248 232.898 75.1705C233.02 75.1069 233.128 75.0183 233.214 74.9105C233.3 74.8027 233.363 74.6781 233.398 74.5446C233.43 74.4295 233.436 74.3089 233.417 74.1911C233.397 74.0733 233.353 73.9612 233.286 73.8624C233.197 73.731 233.081 73.6201 232.946 73.537C232.812 73.4539 232.66 73.4005 232.503 73.3804H232.178C232.069 73.3866 231.961 73.3866 231.852 73.3804C231.551 73.3312 231.27 73.1992 231.04 72.9991C230.81 72.799 230.641 72.5387 230.55 72.2475C230.334 71.6274 230.334 70.9524 230.55 70.3323V70.2509C231.571 68.4734 235.739 68.6423 235.777 68.6486C235.814 68.6549 235.921 68.6423 236.096 68.6611ZM238.312 73.3241L238.199 73.3929C238.174 73.4105 238.147 73.4232 238.118 73.4305C238.005 72.8046 237.867 72.21 237.742 71.6154L237.598 70.9895C237.412 70.2877 237.284 69.5717 237.216 68.8489C238.305 69.0805 239.782 69.6125 239.876 70.7767C239.97 71.9408 238.944 72.8985 238.312 73.3241Z" fill="#3C4C4B"/>
<path d="M169.049 38.086C159.536 34.7187 147.606 38.086 143.438 45.5968C141.022 41.3094 134.719 33.2478 132.065 29.4987C109.307 -2.38461 70.8394 1.14545 49.2146 16.4487C35.7702 25.9561 34.387 46.4919 47.4871 58.3839C57.0321 67.0276 68.6863 73.7748 80.2843 79.6207C96.7142 87.8951 113.939 94.5985 130.857 101.89C138.368 105.132 141.81 109.996 140.99 118.827C139.995 129.517 140.753 140.37 140.289 151.436C130.275 126.92 108.919 117.419 86.5245 108.249C69.3498 101.22 52.3441 92.9586 36.8781 82.794C20.1102 71.7594 14.8714 52.8322 20.9051 36.1958C25.543 23.3962 35.5136 15.4535 47.5684 10.7655C78.9511 -1.4708 110.327 -0.801093 140.947 13.6447C151.099 18.4328 162.49 25.6119 169.049 38.086Z" fill="#1A1E1F"/>
</g>
<defs>
<clipPath id="clip0_4_33">
<rect width="252.82" height="261" fill="white"/>
</clipPath>
</defs>
</svg>
